<svg width="1240" height="200" viewBox="0 0 1240 200" fill="none" xmlns="http://www.w3.org/2000/svg">
<path d="M88.9368 147V127.364H96.4538C97.8729 127.364 99.0522 127.587 99.9918 128.035C100.938 128.476 101.644 129.08 102.111 129.847C102.584 130.614 102.82 131.483 102.82 132.455C102.82 133.254 102.667 133.938 102.36 134.507C102.053 135.069 101.641 135.526 101.123 135.878C100.605 136.229 100.027 136.482 99.3878 136.635V136.827C100.085 136.865 100.752 137.08 101.392 137.469C102.037 137.853 102.565 138.396 102.974 139.099C103.383 139.803 103.587 140.653 103.587 141.65C103.587 142.666 103.341 143.58 102.849 144.392C102.357 145.197 101.615 145.833 100.625 146.3C99.6339 146.767 98.3874 147 96.8853 147H88.9368ZM92.494 144.028H96.3196C97.6108 144.028 98.5408 143.782 99.1097 143.289C99.685 142.791 99.9727 142.152 99.9727 141.372C99.9727 140.79 99.8288 140.266 99.5412 139.799C99.2536 139.326 98.8445 138.956 98.3139 138.687C97.7834 138.412 97.1506 138.275 96.4155 138.275H92.494V144.028ZM92.494 135.715H96.0128C96.6264 135.715 97.1793 135.603 97.6715 135.379C98.1637 135.149 98.5504 134.826 98.8317 134.411C99.1193 133.989 99.2631 133.49 99.2631 132.915C99.2631 132.154 98.9947 131.528 98.4577 131.036C97.9272 130.544 97.1378 130.298 96.0895 130.298H92.494V135.715ZM112.953 147.288C111.514 147.288 110.268 146.971 109.213 146.338C108.158 145.706 107.34 144.82 106.759 143.683C106.183 142.545 105.896 141.215 105.896 139.694C105.896 138.173 106.183 136.84 106.759 135.696C107.34 134.551 108.158 133.663 109.213 133.03C110.268 132.397 111.514 132.081 112.953 132.081C114.391 132.081 115.637 132.397 116.692 133.03C117.747 133.663 118.562 134.551 119.137 135.696C119.718 136.84 120.009 138.173 120.009 139.694C120.009 141.215 119.718 142.545 119.137 143.683C118.562 144.82 117.747 145.706 116.692 146.338C115.637 146.971 114.391 147.288 112.953 147.288ZM112.972 144.507C113.752 144.507 114.403 144.293 114.928 143.865C115.452 143.43 115.842 142.848 116.097 142.12C116.359 141.391 116.491 140.579 116.491 139.684C116.491 138.783 116.359 137.968 116.097 137.239C115.842 136.504 115.452 135.919 114.928 135.485C114.403 135.05 113.752 134.833 112.972 134.833C112.173 134.833 111.508 135.05 110.977 135.485C110.453 135.919 110.06 136.504 109.798 137.239C109.542 137.968 109.415 138.783 109.415 139.684C109.415 140.579 109.542 141.391 109.798 142.12C110.06 142.848 110.453 143.43 110.977 143.865C111.508 144.293 112.173 144.507 112.972 144.507ZM127.193 147.297C126.26 147.297 125.419 147.131 124.672 146.799C123.93 146.46 123.342 145.961 122.907 145.303C122.479 144.645 122.265 143.833 122.265 142.868C122.265 142.037 122.418 141.349 122.725 140.806C123.032 140.263 123.451 139.828 123.981 139.502C124.512 139.176 125.109 138.93 125.774 138.764C126.445 138.591 127.139 138.467 127.855 138.39C128.718 138.3 129.418 138.221 129.955 138.15C130.491 138.074 130.881 137.958 131.124 137.805C131.374 137.645 131.498 137.399 131.498 137.067V137.009C131.498 136.287 131.284 135.728 130.856 135.331C130.428 134.935 129.811 134.737 129.005 134.737C128.155 134.737 127.481 134.922 126.982 135.293C126.49 135.664 126.158 136.102 125.985 136.607L122.744 136.146C123 135.251 123.422 134.504 124.01 133.903C124.598 133.295 125.317 132.842 126.167 132.541C127.017 132.234 127.957 132.081 128.986 132.081C129.696 132.081 130.402 132.164 131.105 132.33C131.808 132.496 132.451 132.771 133.032 133.155C133.614 133.532 134.081 134.047 134.432 134.699C134.79 135.35 134.969 136.165 134.969 137.143V147H131.632V144.977H131.517C131.306 145.386 131.009 145.77 130.626 146.127C130.249 146.479 129.772 146.763 129.197 146.981C128.628 147.192 127.96 147.297 127.193 147.297ZM128.094 144.747C128.791 144.747 129.395 144.609 129.907 144.335C130.418 144.053 130.811 143.683 131.086 143.222C131.367 142.762 131.508 142.26 131.508 141.717V139.982C131.399 140.071 131.214 140.154 130.952 140.231C130.696 140.308 130.408 140.375 130.089 140.432C129.769 140.49 129.453 140.541 129.14 140.586C128.826 140.63 128.555 140.669 128.325 140.701C127.807 140.771 127.343 140.886 126.934 141.046C126.525 141.206 126.202 141.429 125.966 141.717C125.729 141.998 125.611 142.363 125.611 142.81C125.611 143.449 125.844 143.932 126.311 144.258C126.778 144.584 127.372 144.747 128.094 144.747ZM138.459 147V132.273H141.825V134.727H141.978C142.246 133.877 142.707 133.222 143.359 132.762C144.017 132.295 144.768 132.062 145.612 132.062C145.804 132.062 146.018 132.071 146.254 132.091C146.497 132.103 146.699 132.126 146.858 132.158V135.35C146.711 135.299 146.478 135.255 146.158 135.216C145.845 135.172 145.542 135.149 145.248 135.149C144.615 135.149 144.046 135.287 143.541 135.561C143.042 135.83 142.649 136.204 142.362 136.683C142.074 137.163 141.93 137.716 141.93 138.342V147H138.459ZM154.023 147.259C152.866 147.259 151.831 146.962 150.916 146.367C150.002 145.773 149.28 144.91 148.75 143.778C148.219 142.647 147.954 141.273 147.954 139.656C147.954 138.019 148.222 136.638 148.759 135.513C149.302 134.382 150.034 133.529 150.955 132.953C151.875 132.372 152.901 132.081 154.033 132.081C154.896 132.081 155.605 132.228 156.161 132.522C156.717 132.81 157.158 133.158 157.484 133.567C157.81 133.97 158.063 134.35 158.242 134.708H158.386V127.364H161.866V147H158.453V144.68H158.242C158.063 145.038 157.804 145.418 157.465 145.821C157.126 146.217 156.679 146.556 156.123 146.837C155.567 147.118 154.867 147.259 154.023 147.259ZM154.991 144.411C155.726 144.411 156.353 144.213 156.871 143.817C157.388 143.414 157.782 142.855 158.05 142.139C158.318 141.423 158.453 140.589 158.453 139.636C158.453 138.684 158.318 137.856 158.05 137.153C157.788 136.45 157.398 135.903 156.88 135.513C156.369 135.124 155.739 134.929 154.991 134.929C154.218 134.929 153.572 135.13 153.055 135.533C152.537 135.935 152.147 136.491 151.885 137.201C151.623 137.911 151.492 138.722 151.492 139.636C151.492 140.557 151.623 141.378 151.885 142.1C152.153 142.816 152.546 143.382 153.064 143.798C153.588 144.207 154.231 144.411 154.991 144.411ZM165.565 147V132.273H169.036V147H165.565ZM167.31 130.183C166.76 130.183 166.287 130 165.891 129.636C165.494 129.265 165.296 128.821 165.296 128.303C165.296 127.779 165.494 127.335 165.891 126.971C166.287 126.6 166.76 126.414 167.31 126.414C167.866 126.414 168.339 126.6 168.729 126.971C169.125 127.335 169.323 127.779 169.323 128.303C169.323 128.821 169.125 129.265 168.729 129.636C168.339 130 167.866 130.183 167.31 130.183ZM176.076 138.371V147H172.605V132.273H175.922V134.775H176.095C176.434 133.951 176.974 133.295 177.715 132.81C178.463 132.324 179.387 132.081 180.486 132.081C181.502 132.081 182.388 132.298 183.142 132.733C183.903 133.168 184.491 133.797 184.906 134.622C185.328 135.446 185.536 136.447 185.529 137.623V147H182.059V138.16C182.059 137.175 181.803 136.405 181.291 135.849C180.786 135.293 180.087 135.015 179.192 135.015C178.584 135.015 178.044 135.149 177.571 135.418C177.105 135.68 176.737 136.06 176.469 136.559C176.207 137.057 176.076 137.661 176.076 138.371ZM195.463 152.83C194.216 152.83 193.146 152.66 192.251 152.321C191.356 151.989 190.637 151.542 190.093 150.979C189.55 150.417 189.173 149.793 188.962 149.109L192.088 148.352C192.228 148.64 192.433 148.924 192.701 149.205C192.97 149.493 193.331 149.729 193.785 149.915C194.245 150.107 194.823 150.202 195.52 150.202C196.505 150.202 197.32 149.963 197.965 149.483C198.611 149.01 198.934 148.23 198.934 147.144V144.354H198.761C198.582 144.712 198.32 145.079 197.975 145.456C197.636 145.833 197.185 146.15 196.623 146.406C196.067 146.661 195.367 146.789 194.523 146.789C193.392 146.789 192.366 146.524 191.445 145.993C190.531 145.456 189.802 144.657 189.259 143.596C188.722 142.529 188.454 141.193 188.454 139.588C188.454 137.971 188.722 136.607 189.259 135.494C189.802 134.376 190.534 133.529 191.455 132.953C192.375 132.372 193.401 132.081 194.533 132.081C195.396 132.081 196.105 132.228 196.661 132.522C197.224 132.81 197.671 133.158 198.003 133.567C198.336 133.97 198.588 134.35 198.761 134.708H198.953V132.273H202.376V147.24C202.376 148.499 202.075 149.541 201.474 150.365C200.873 151.19 200.052 151.807 199.01 152.216C197.968 152.625 196.786 152.83 195.463 152.83ZM195.491 144.066C196.226 144.066 196.853 143.887 197.371 143.529C197.888 143.171 198.282 142.657 198.55 141.985C198.818 141.314 198.953 140.509 198.953 139.569C198.953 138.642 198.818 137.831 198.55 137.134C198.288 136.437 197.898 135.897 197.38 135.513C196.869 135.124 196.239 134.929 195.491 134.929C194.718 134.929 194.072 135.13 193.555 135.533C193.037 135.935 192.647 136.488 192.385 137.191C192.123 137.888 191.992 138.681 191.992 139.569C191.992 140.471 192.123 141.26 192.385 141.938C192.653 142.609 193.046 143.133 193.564 143.51C194.088 143.881 194.731 144.066 195.491 144.066ZM223.455 132.762C223.366 131.924 222.988 131.272 222.324 130.806C221.665 130.339 220.809 130.106 219.754 130.106C219.013 130.106 218.377 130.218 217.846 130.441C217.315 130.665 216.91 130.969 216.628 131.352C216.347 131.736 216.203 132.174 216.197 132.666C216.197 133.075 216.29 133.43 216.475 133.73C216.667 134.031 216.926 134.286 217.252 134.497C217.578 134.702 217.939 134.874 218.335 135.015C218.731 135.156 219.131 135.274 219.533 135.37L221.374 135.83C222.116 136.002 222.829 136.236 223.513 136.53C224.203 136.824 224.82 137.195 225.363 137.642C225.913 138.089 226.347 138.63 226.667 139.262C226.987 139.895 227.146 140.637 227.146 141.487C227.146 142.637 226.852 143.651 226.264 144.526C225.676 145.396 224.826 146.076 223.714 146.569C222.608 147.054 221.269 147.297 219.696 147.297C218.169 147.297 216.842 147.061 215.717 146.588C214.599 146.115 213.723 145.424 213.09 144.517C212.464 143.609 212.125 142.503 212.074 141.199H215.574C215.625 141.883 215.836 142.452 216.206 142.906C216.577 143.36 217.06 143.699 217.654 143.922C218.255 144.146 218.926 144.258 219.668 144.258C220.441 144.258 221.119 144.143 221.7 143.913C222.288 143.676 222.749 143.35 223.081 142.935C223.413 142.513 223.583 142.021 223.589 141.458C223.583 140.947 223.433 140.525 223.139 140.192C222.845 139.854 222.432 139.572 221.902 139.349C221.378 139.119 220.764 138.914 220.061 138.735L217.827 138.16C216.21 137.744 214.931 137.115 213.992 136.271C213.058 135.421 212.592 134.293 212.592 132.886C212.592 131.729 212.905 130.716 213.531 129.847C214.164 128.978 215.024 128.303 216.111 127.824C217.197 127.338 218.428 127.095 219.802 127.095C221.195 127.095 222.416 127.338 223.465 127.824C224.519 128.303 225.347 128.971 225.948 129.828C226.549 130.678 226.859 131.656 226.878 132.762H223.455ZM236.588 147.288C235.118 147.288 233.856 146.965 232.801 146.319C231.753 145.674 230.944 144.782 230.375 143.644C229.813 142.5 229.531 141.183 229.531 139.694C229.531 138.198 229.819 136.878 230.394 135.734C230.97 134.583 231.781 133.689 232.83 133.049C233.884 132.404 235.131 132.081 236.569 132.081C237.764 132.081 238.822 132.301 239.743 132.743C240.67 133.177 241.408 133.794 241.958 134.593C242.507 135.386 242.82 136.312 242.897 137.374H239.58C239.445 136.664 239.126 136.073 238.621 135.6C238.122 135.12 237.454 134.881 236.617 134.881C235.907 134.881 235.284 135.072 234.747 135.456C234.21 135.833 233.792 136.376 233.491 137.086C233.197 137.795 233.05 138.646 233.05 139.636C233.05 140.64 233.197 141.503 233.491 142.225C233.785 142.941 234.198 143.494 234.728 143.884C235.265 144.267 235.895 144.459 236.617 144.459C237.128 144.459 237.585 144.363 237.988 144.172C238.397 143.973 238.739 143.689 239.014 143.318C239.289 142.947 239.477 142.497 239.58 141.966H242.897C242.814 143.008 242.507 143.932 241.977 144.737C241.446 145.536 240.724 146.163 239.81 146.616C238.896 147.064 237.822 147.288 236.588 147.288ZM249.218 138.371V147H245.747V127.364H249.141V134.775H249.314C249.659 133.944 250.193 133.289 250.915 132.81C251.644 132.324 252.571 132.081 253.696 132.081C254.718 132.081 255.61 132.295 256.371 132.723C257.131 133.152 257.72 133.778 258.135 134.603C258.557 135.427 258.768 136.434 258.768 137.623V147H255.297V138.16C255.297 137.169 255.041 136.399 254.53 135.849C254.025 135.293 253.315 135.015 252.401 135.015C251.788 135.015 251.238 135.149 250.752 135.418C250.273 135.68 249.896 136.06 249.621 136.559C249.352 137.057 249.218 137.661 249.218 138.371ZM268.73 147.288C267.292 147.288 266.045 146.971 264.991 146.338C263.936 145.706 263.118 144.82 262.536 143.683C261.961 142.545 261.673 141.215 261.673 139.694C261.673 138.173 261.961 136.84 262.536 135.696C263.118 134.551 263.936 133.663 264.991 133.03C266.045 132.397 267.292 132.081 268.73 132.081C270.168 132.081 271.415 132.397 272.469 133.03C273.524 133.663 274.339 134.551 274.914 135.696C275.496 136.84 275.787 138.173 275.787 139.694C275.787 141.215 275.496 142.545 274.914 143.683C274.339 144.82 273.524 145.706 272.469 146.338C271.415 146.971 270.168 147.288 268.73 147.288ZM268.749 144.507C269.529 144.507 270.181 144.293 270.705 143.865C271.229 143.43 271.619 142.848 271.875 142.12C272.137 141.391 272.268 140.579 272.268 139.684C272.268 138.783 272.137 137.968 271.875 137.239C271.619 136.504 271.229 135.919 270.705 135.485C270.181 135.05 269.529 134.833 268.749 134.833C267.95 134.833 267.285 135.05 266.755 135.485C266.231 135.919 265.837 136.504 265.575 137.239C265.32 137.968 265.192 138.783 265.192 139.684C265.192 140.579 265.32 141.391 265.575 142.12C265.837 142.848 266.231 143.43 266.755 143.865C267.285 144.293 267.95 144.507 268.749 144.507ZM285.157 147.288C283.718 147.288 282.472 146.971 281.417 146.338C280.363 145.706 279.544 144.82 278.963 143.683C278.387 142.545 278.1 141.215 278.1 139.694C278.1 138.173 278.387 136.84 278.963 135.696C279.544 134.551 280.363 133.663 281.417 133.03C282.472 132.397 283.718 132.081 285.157 132.081C286.595 132.081 287.841 132.397 288.896 133.03C289.951 133.663 290.766 134.551 291.341 135.696C291.923 136.84 292.213 138.173 292.213 139.694C292.213 141.215 291.923 142.545 291.341 143.683C290.766 144.82 289.951 145.706 288.896 146.338C287.841 146.971 286.595 147.288 285.157 147.288ZM285.176 144.507C285.956 144.507 286.608 144.293 287.132 143.865C287.656 143.43 288.046 142.848 288.301 142.12C288.564 141.391 288.695 140.579 288.695 139.684C288.695 138.783 288.564 137.968 288.301 137.239C288.046 136.504 287.656 135.919 287.132 135.485C286.608 135.05 285.956 134.833 285.176 134.833C284.377 134.833 283.712 135.05 283.181 135.485C282.657 135.919 282.264 136.504 282.002 137.239C281.746 137.968 281.619 138.783 281.619 139.684C281.619 140.579 281.746 141.391 282.002 142.12C282.264 142.848 282.657 143.43 283.181 143.865C283.712 144.293 284.377 144.507 285.176 144.507ZM298.63 127.364V147H295.159V127.364H298.63Z" fill="#009FE3"/>
<path d="M32 131.629L31.124 132.06L11.126 141.719L10 142.272V145.656H54V142.272L52.874 141.719L32.874 132.06L32 131.629ZM32 136.059L43.75 141.719H20.25L32 136.059ZM14 147.625V167.312H12V171.25H52V167.312H50V147.625H46V167.312H42V147.625H38V167.312H34V147.625H30V167.312H26V147.625H22V167.312H18V147.625H14ZM8 173.219V177.156H56V173.219H8Z" fill="#111111"/>
<path d="M113.875 187C113.875 188.724 113.552 190.201 112.906 191.43C112.266 192.654 111.391 193.591 110.281 194.242C109.177 194.893 107.924 195.219 106.523 195.219C105.122 195.219 103.867 194.893 102.758 194.242C101.654 193.586 100.779 192.646 100.133 191.422C99.4922 190.193 99.1719 188.719 99.1719 187C99.1719 185.276 99.4922 183.802 100.133 182.578C100.779 181.349 101.654 180.409 102.758 179.758C103.867 179.107 105.122 178.781 106.523 178.781C107.924 178.781 109.177 179.107 110.281 179.758C111.391 180.409 112.266 181.349 112.906 182.578C113.552 183.802 113.875 185.276 113.875 187ZM110.961 187C110.961 185.786 110.771 184.763 110.391 183.93C110.016 183.091 109.495 182.458 108.828 182.031C108.161 181.599 107.393 181.383 106.523 181.383C105.654 181.383 104.885 181.599 104.219 182.031C103.552 182.458 103.029 183.091 102.648 183.93C102.273 184.763 102.086 185.786 102.086 187C102.086 188.214 102.273 189.24 102.648 190.078C103.029 190.911 103.552 191.544 104.219 191.977C104.885 192.404 105.654 192.617 106.523 192.617C107.393 192.617 108.161 192.404 108.828 191.977C109.495 191.544 110.016 190.911 110.391 190.078C110.771 189.24 110.961 188.214 110.961 187ZM127.209 183L122.936 195H119.811L115.537 183H118.553L121.311 191.914H121.436L124.201 183H127.209ZM134.07 195.234C132.867 195.234 131.828 194.984 130.953 194.484C130.083 193.979 129.414 193.266 128.945 192.344C128.477 191.417 128.242 190.326 128.242 189.07C128.242 187.836 128.477 186.753 128.945 185.82C129.419 184.883 130.081 184.154 130.93 183.633C131.779 183.107 132.776 182.844 133.922 182.844C134.661 182.844 135.359 182.964 136.016 183.203C136.677 183.437 137.26 183.802 137.766 184.297C138.276 184.792 138.677 185.422 138.969 186.187C139.26 186.948 139.406 187.854 139.406 188.906V189.773H129.57V187.867H136.695C136.69 187.326 136.573 186.844 136.344 186.422C136.115 185.995 135.794 185.659 135.383 185.414C134.977 185.169 134.503 185.047 133.961 185.047C133.383 185.047 132.875 185.187 132.438 185.469C132 185.745 131.659 186.109 131.414 186.562C131.174 187.01 131.052 187.503 131.047 188.039V189.703C131.047 190.401 131.174 191 131.43 191.5C131.685 191.995 132.042 192.375 132.5 192.641C132.958 192.901 133.495 193.031 134.109 193.031C134.521 193.031 134.893 192.974 135.227 192.859C135.56 192.74 135.849 192.565 136.094 192.336C136.339 192.107 136.523 191.823 136.648 191.484L139.289 191.781C139.122 192.479 138.805 193.089 138.336 193.609C137.872 194.125 137.279 194.526 136.555 194.812C135.831 195.094 135.003 195.234 134.07 195.234ZM141.799 195V183H144.541V185H144.666C144.885 184.307 145.26 183.773 145.791 183.398C146.327 183.018 146.939 182.828 147.627 182.828C147.783 182.828 147.958 182.836 148.15 182.852C148.348 182.862 148.512 182.88 148.643 182.906V185.508C148.523 185.466 148.333 185.43 148.072 185.398C147.817 185.362 147.57 185.344 147.33 185.344C146.814 185.344 146.351 185.456 145.939 185.68C145.533 185.898 145.213 186.203 144.979 186.594C144.744 186.984 144.627 187.435 144.627 187.945V195H141.799ZM153.76 195.242C152.999 195.242 152.314 195.107 151.705 194.836C151.101 194.56 150.622 194.154 150.268 193.617C149.919 193.081 149.744 192.419 149.744 191.633C149.744 190.956 149.869 190.396 150.119 189.953C150.369 189.51 150.71 189.156 151.143 188.891C151.575 188.625 152.062 188.424 152.604 188.289C153.15 188.148 153.715 188.047 154.299 187.984C155.002 187.911 155.572 187.846 156.01 187.789C156.447 187.727 156.765 187.633 156.963 187.508C157.166 187.378 157.268 187.177 157.268 186.906V186.859C157.268 186.271 157.093 185.815 156.744 185.492C156.395 185.169 155.893 185.008 155.236 185.008C154.544 185.008 153.994 185.159 153.588 185.461C153.187 185.763 152.916 186.12 152.775 186.531L150.135 186.156C150.343 185.427 150.687 184.818 151.166 184.328C151.645 183.833 152.231 183.464 152.924 183.219C153.617 182.969 154.382 182.844 155.221 182.844C155.799 182.844 156.374 182.911 156.947 183.047C157.52 183.182 158.044 183.406 158.518 183.719C158.992 184.026 159.372 184.445 159.658 184.977C159.95 185.508 160.096 186.172 160.096 186.969V195H157.377V193.352H157.283C157.111 193.685 156.869 193.997 156.557 194.289C156.249 194.576 155.861 194.807 155.393 194.984C154.929 195.156 154.385 195.242 153.76 195.242ZM154.494 193.164C155.062 193.164 155.554 193.052 155.971 192.828C156.387 192.599 156.708 192.297 156.932 191.922C157.161 191.547 157.275 191.138 157.275 190.695V189.281C157.187 189.354 157.036 189.422 156.822 189.484C156.614 189.547 156.38 189.602 156.119 189.648C155.859 189.695 155.601 189.737 155.346 189.773C155.09 189.81 154.869 189.841 154.682 189.867C154.26 189.924 153.882 190.018 153.549 190.148C153.215 190.279 152.952 190.461 152.76 190.695C152.567 190.924 152.471 191.221 152.471 191.586C152.471 192.107 152.661 192.5 153.041 192.766C153.421 193.031 153.906 193.164 154.494 193.164ZM165.768 179V195H162.939V179H165.768ZM171.504 179V195H168.676V179H171.504ZM179.869 195V183H182.697V195H179.869ZM181.291 181.297C180.843 181.297 180.458 181.148 180.135 180.852C179.812 180.549 179.65 180.187 179.65 179.766C179.65 179.339 179.812 178.977 180.135 178.68C180.458 178.378 180.843 178.227 181.291 178.227C181.744 178.227 182.13 178.378 182.447 178.68C182.77 178.977 182.932 179.339 182.932 179.766C182.932 180.187 182.77 180.549 182.447 180.852C182.13 181.148 181.744 181.297 181.291 181.297ZM188.434 187.969V195H185.605V183H188.309V185.039H188.449C188.725 184.367 189.165 183.833 189.77 183.437C190.379 183.042 191.132 182.844 192.027 182.844C192.855 182.844 193.577 183.021 194.191 183.375C194.811 183.729 195.29 184.242 195.629 184.914C195.973 185.586 196.142 186.401 196.137 187.359V195H193.309V187.797C193.309 186.995 193.1 186.367 192.684 185.914C192.272 185.461 191.702 185.234 190.973 185.234C190.478 185.234 190.038 185.344 189.652 185.562C189.272 185.776 188.973 186.086 188.754 186.492C188.54 186.898 188.434 187.391 188.434 187.969ZM207.297 187.969V195H204.469V179H207.234V185.039H207.375C207.656 184.362 208.091 183.828 208.68 183.437C209.273 183.042 210.029 182.844 210.945 182.844C211.779 182.844 212.505 183.018 213.125 183.367C213.745 183.716 214.224 184.227 214.563 184.898C214.906 185.57 215.078 186.391 215.078 187.359V195H212.25V187.797C212.25 186.99 212.042 186.362 211.625 185.914C211.214 185.461 210.635 185.234 209.891 185.234C209.391 185.234 208.943 185.344 208.547 185.562C208.156 185.776 207.849 186.086 207.625 186.492C207.406 186.898 207.297 187.391 207.297 187.969ZM223.273 195.234C222.07 195.234 221.031 194.984 220.156 194.484C219.286 193.979 218.617 193.266 218.148 192.344C217.68 191.417 217.445 190.326 217.445 189.07C217.445 187.836 217.68 186.753 218.148 185.82C218.622 184.883 219.284 184.154 220.133 183.633C220.982 183.107 221.979 182.844 223.125 182.844C223.865 182.844 224.563 182.964 225.219 183.203C225.88 183.437 226.464 183.802 226.969 184.297C227.479 184.792 227.88 185.422 228.172 186.187C228.464 186.948 228.609 187.854 228.609 188.906V189.773H218.773V187.867H225.898C225.893 187.326 225.776 186.844 225.547 186.422C225.318 185.995 224.997 185.659 224.586 185.414C224.18 185.169 223.706 185.047 223.164 185.047C222.586 185.047 222.078 185.187 221.641 185.469C221.203 185.745 220.862 186.109 220.617 186.562C220.378 187.01 220.255 187.503 220.25 188.039V189.703C220.25 190.401 220.378 191 220.633 191.5C220.888 191.995 221.245 192.375 221.703 192.641C222.161 192.901 222.698 193.031 223.313 193.031C223.724 193.031 224.096 192.974 224.43 192.859C224.763 192.74 225.052 192.565 225.297 192.336C225.542 192.107 225.727 191.823 225.852 191.484L228.492 191.781C228.326 192.479 228.008 193.089 227.539 193.609C227.076 194.125 226.482 194.526 225.758 194.812C225.034 195.094 224.206 195.234 223.273 195.234ZM231.002 195V183H233.744V185H233.869C234.088 184.307 234.463 183.773 234.994 183.398C235.531 183.018 236.143 182.828 236.83 182.828C236.986 182.828 237.161 182.836 237.354 182.852C237.551 182.862 237.715 182.88 237.846 182.906V185.508C237.726 185.466 237.536 185.43 237.275 185.398C237.02 185.362 236.773 185.344 236.533 185.344C236.018 185.344 235.554 185.456 235.143 185.68C234.736 185.898 234.416 186.203 234.182 186.594C233.947 186.984 233.83 187.435 233.83 187.945V195H231.002ZM244.543 195.234C243.34 195.234 242.301 194.984 241.426 194.484C240.556 193.979 239.887 193.266 239.418 192.344C238.949 191.417 238.715 190.326 238.715 189.07C238.715 187.836 238.949 186.753 239.418 185.82C239.892 184.883 240.553 184.154 241.402 183.633C242.251 183.107 243.249 182.844 244.395 182.844C245.134 182.844 245.832 182.964 246.488 183.203C247.15 183.437 247.733 183.802 248.238 184.297C248.749 184.792 249.15 185.422 249.441 186.187C249.733 186.948 249.879 187.854 249.879 188.906V189.773H240.043V187.867H247.168C247.163 187.326 247.046 186.844 246.816 186.422C246.587 185.995 246.267 185.659 245.855 185.414C245.449 185.169 244.975 185.047 244.434 185.047C243.855 185.047 243.348 185.187 242.91 185.469C242.473 185.745 242.132 186.109 241.887 186.562C241.647 187.01 241.525 187.503 241.52 188.039V189.703C241.52 190.401 241.647 191 241.902 191.5C242.158 191.995 242.514 192.375 242.973 192.641C243.431 192.901 243.967 193.031 244.582 193.031C244.993 193.031 245.366 192.974 245.699 192.859C246.033 192.74 246.322 192.565 246.566 192.336C246.811 192.107 246.996 191.823 247.121 191.484L249.762 191.781C249.595 192.479 249.277 193.089 248.809 193.609C248.345 194.125 247.751 194.526 247.027 194.812C246.303 195.094 245.475 195.234 244.543 195.234Z" fill="#8B8888"/>
<g clip-path="url(#clip0_369_35)">
<path d="M426.008 148.868C426.01 147.904 425.713 146.957 425.149 146.123C424.584 145.289 423.771 144.597 422.792 144.119L387.828 126.369C386.821 125.866 385.675 125.601 384.508 125.601C383.342 125.601 382.196 125.866 381.188 126.369L346.173 144.119C345.205 144.611 344.404 145.309 343.847 146.145C343.29 146.981 342.997 147.927 342.997 148.89C342.997 149.852 343.29 150.798 343.847 151.634C344.404 152.471 345.205 153.169 346.173 153.66L356.133 158.63V171.099C356.139 172.074 356.438 173.031 357.001 173.878C357.564 174.725 358.373 175.434 359.349 175.936L381.396 186.808C382.38 187.274 383.487 187.519 384.612 187.519C385.737 187.519 386.844 187.274 387.828 186.808L409.875 175.936C410.851 175.434 411.66 174.725 412.223 173.878C412.786 173.031 413.086 172.074 413.091 171.099V158.497L419.524 155.258V167.328H426.008V148.868ZM406.659 171.055L384.508 181.971L362.617 171.099V161.914L381.188 171.366C382.199 171.86 383.344 172.12 384.508 172.12C385.673 172.12 386.817 171.86 387.828 171.366L406.607 161.781L406.659 171.055ZM384.508 166.573L349.493 148.823L384.508 131.029L419.524 148.779L384.508 166.573Z" fill="black"/>
</g>
<path d="M454.092 128.634C453.932 128.116 453.711 127.653 453.43 127.244C453.155 126.828 452.823 126.474 452.433 126.18C452.049 125.886 451.608 125.665 451.11 125.518C450.611 125.365 450.068 125.288 449.48 125.288C448.425 125.288 447.485 125.553 446.661 126.084C445.836 126.614 445.188 127.394 444.714 128.423C444.248 129.446 444.015 130.692 444.015 132.163C444.015 133.646 444.248 134.902 444.714 135.931C445.181 136.96 445.83 137.743 446.661 138.28C447.492 138.81 448.457 139.076 449.556 139.076C450.554 139.076 451.417 138.884 452.145 138.5C452.88 138.117 453.446 137.574 453.842 136.87C454.239 136.161 454.437 135.33 454.437 134.377L455.242 134.502H449.911V131.722H457.879V134.08C457.879 135.761 457.521 137.216 456.805 138.443C456.089 139.67 455.105 140.616 453.852 141.281C452.599 141.939 451.161 142.268 449.537 142.268C447.728 142.268 446.14 141.863 444.772 141.051C443.411 140.233 442.346 139.072 441.579 137.57C440.819 136.062 440.438 134.272 440.438 132.201C440.438 130.616 440.662 129.2 441.109 127.953C441.563 126.707 442.196 125.649 443.008 124.78C443.82 123.904 444.772 123.239 445.865 122.786C446.958 122.325 448.147 122.095 449.432 122.095C450.518 122.095 451.532 122.255 452.471 122.575C453.411 122.888 454.245 123.335 454.974 123.917C455.709 124.499 456.313 125.189 456.786 125.988C457.259 126.787 457.569 127.669 457.716 128.634H454.092ZM461.165 142V127.273H464.531V129.727H464.684C464.953 128.877 465.413 128.222 466.065 127.762C466.723 127.295 467.474 127.062 468.318 127.062C468.51 127.062 468.724 127.071 468.96 127.091C469.203 127.103 469.405 127.126 469.564 127.158V130.35C469.417 130.299 469.184 130.255 468.864 130.216C468.551 130.172 468.248 130.149 467.954 130.149C467.321 130.149 466.752 130.287 466.247 130.561C465.748 130.83 465.355 131.204 465.068 131.683C464.78 132.163 464.636 132.716 464.636 133.342V142H461.165ZM475.845 142.297C474.911 142.297 474.071 142.131 473.323 141.799C472.581 141.46 471.993 140.961 471.559 140.303C471.13 139.645 470.916 138.833 470.916 137.868C470.916 137.037 471.07 136.349 471.377 135.806C471.683 135.263 472.102 134.828 472.633 134.502C473.163 134.176 473.761 133.93 474.426 133.764C475.097 133.591 475.79 133.467 476.506 133.39C477.369 133.3 478.069 133.221 478.606 133.15C479.143 133.074 479.533 132.958 479.776 132.805C480.025 132.645 480.15 132.399 480.15 132.067V132.009C480.15 131.287 479.935 130.728 479.507 130.331C479.079 129.935 478.462 129.737 477.657 129.737C476.807 129.737 476.132 129.922 475.634 130.293C475.141 130.664 474.809 131.102 474.636 131.607L471.396 131.146C471.651 130.251 472.073 129.504 472.661 128.903C473.249 128.295 473.968 127.842 474.819 127.541C475.669 127.234 476.608 127.081 477.638 127.081C478.347 127.081 479.053 127.164 479.756 127.33C480.46 127.496 481.102 127.771 481.684 128.155C482.265 128.532 482.732 129.047 483.084 129.699C483.441 130.35 483.62 131.165 483.62 132.143V142H480.284V139.977H480.169C479.958 140.386 479.661 140.77 479.277 141.127C478.9 141.479 478.424 141.763 477.848 141.981C477.28 142.192 476.612 142.297 475.845 142.297ZM476.746 139.747C477.443 139.747 478.047 139.609 478.558 139.335C479.069 139.053 479.462 138.683 479.737 138.222C480.019 137.762 480.159 137.26 480.159 136.717V134.982C480.051 135.071 479.865 135.154 479.603 135.231C479.347 135.308 479.06 135.375 478.74 135.432C478.421 135.49 478.104 135.541 477.791 135.586C477.478 135.63 477.206 135.669 476.976 135.701C476.458 135.771 475.995 135.886 475.586 136.046C475.177 136.206 474.854 136.429 474.617 136.717C474.381 136.998 474.263 137.363 474.263 137.81C474.263 138.449 474.496 138.932 474.962 139.258C475.429 139.584 476.024 139.747 476.746 139.747ZM492.576 142.259C491.419 142.259 490.383 141.962 489.469 141.367C488.555 140.773 487.833 139.91 487.302 138.778C486.772 137.647 486.506 136.273 486.506 134.656C486.506 133.019 486.775 131.638 487.312 130.513C487.855 129.382 488.587 128.529 489.508 127.953C490.428 127.372 491.454 127.081 492.585 127.081C493.448 127.081 494.158 127.228 494.714 127.522C495.27 127.81 495.711 128.158 496.037 128.567C496.363 128.97 496.616 129.35 496.794 129.708H496.938V122.364H500.419V142H497.005V139.68H496.794C496.616 140.038 496.357 140.418 496.018 140.821C495.679 141.217 495.232 141.556 494.676 141.837C494.119 142.118 493.419 142.259 492.576 142.259ZM493.544 139.411C494.279 139.411 494.906 139.213 495.423 138.817C495.941 138.414 496.334 137.855 496.603 137.139C496.871 136.423 497.005 135.589 497.005 134.636C497.005 133.684 496.871 132.856 496.603 132.153C496.341 131.45 495.951 130.903 495.433 130.513C494.922 130.124 494.292 129.929 493.544 129.929C492.771 129.929 492.125 130.13 491.607 130.533C491.09 130.935 490.7 131.491 490.438 132.201C490.176 132.911 490.044 133.722 490.044 134.636C490.044 135.557 490.176 136.378 490.438 137.1C490.706 137.816 491.099 138.382 491.617 138.798C492.141 139.207 492.783 139.411 493.544 139.411ZM513.504 135.806V127.273H516.975V142H513.61V139.382H513.456C513.124 140.207 512.577 140.881 511.817 141.406C511.062 141.93 510.132 142.192 509.026 142.192C508.061 142.192 507.208 141.978 506.466 141.549C505.731 141.115 505.156 140.485 504.741 139.661C504.325 138.83 504.117 137.826 504.117 136.65V127.273H507.588V136.113C507.588 137.046 507.844 137.788 508.355 138.337C508.867 138.887 509.538 139.162 510.369 139.162C510.88 139.162 511.376 139.037 511.855 138.788C512.334 138.539 512.727 138.168 513.034 137.676C513.347 137.177 513.504 136.554 513.504 135.806ZM524.782 142.297C523.849 142.297 523.008 142.131 522.26 141.799C521.519 141.46 520.931 140.961 520.496 140.303C520.068 139.645 519.854 138.833 519.854 137.868C519.854 137.037 520.007 136.349 520.314 135.806C520.621 135.263 521.04 134.828 521.57 134.502C522.101 134.176 522.698 133.93 523.363 133.764C524.034 133.591 524.728 133.467 525.444 133.39C526.307 133.3 527.006 133.221 527.543 133.15C528.08 133.074 528.47 132.958 528.713 132.805C528.962 132.645 529.087 132.399 529.087 132.067V132.009C529.087 131.287 528.873 130.728 528.445 130.331C528.016 129.935 527.4 129.737 526.594 129.737C525.744 129.737 525.07 129.922 524.571 130.293C524.079 130.664 523.747 131.102 523.574 131.607L520.333 131.146C520.589 130.251 521.011 129.504 521.599 128.903C522.187 128.295 522.906 127.842 523.756 127.541C524.606 127.234 525.546 127.081 526.575 127.081C527.285 127.081 527.991 127.164 528.694 127.33C529.397 127.496 530.04 127.771 530.621 128.155C531.203 128.532 531.669 129.047 532.021 129.699C532.379 130.35 532.558 131.165 532.558 132.143V142H529.221V139.977H529.106C528.895 140.386 528.598 140.77 528.215 141.127C527.837 141.479 527.361 141.763 526.786 141.981C526.217 142.192 525.549 142.297 524.782 142.297ZM525.683 139.747C526.38 139.747 526.984 139.609 527.495 139.335C528.007 139.053 528.4 138.683 528.675 138.222C528.956 137.762 529.097 137.26 529.097 136.717V134.982C528.988 135.071 528.803 135.154 528.541 135.231C528.285 135.308 527.997 135.375 527.678 135.432C527.358 135.49 527.042 135.541 526.728 135.586C526.415 135.63 526.144 135.669 525.913 135.701C525.396 135.771 524.932 135.886 524.523 136.046C524.114 136.206 523.791 136.429 523.555 136.717C523.318 136.998 523.2 137.363 523.2 137.81C523.2 138.449 523.433 138.932 523.9 139.258C524.367 139.584 524.961 139.747 525.683 139.747ZM543.402 127.273V129.957H534.936V127.273H543.402ZM537.026 123.744H540.497V137.57C540.497 138.037 540.567 138.395 540.708 138.644C540.855 138.887 541.047 139.053 541.283 139.143C541.52 139.232 541.782 139.277 542.069 139.277C542.287 139.277 542.485 139.261 542.664 139.229C542.849 139.197 542.99 139.168 543.086 139.143L543.671 141.856C543.485 141.92 543.22 141.99 542.875 142.067C542.536 142.144 542.12 142.189 541.628 142.201C540.759 142.227 539.976 142.096 539.279 141.808C538.582 141.514 538.03 141.06 537.62 140.447C537.218 139.833 537.02 139.066 537.026 138.146V123.744ZM546.305 142V127.273H549.776V142H546.305ZM548.05 125.183C547.5 125.183 547.027 125 546.631 124.636C546.235 124.265 546.036 123.821 546.036 123.303C546.036 122.779 546.235 122.335 546.631 121.971C547.027 121.6 547.5 121.414 548.05 121.414C548.606 121.414 549.079 121.6 549.469 121.971C549.865 122.335 550.063 122.779 550.063 123.303C550.063 123.821 549.865 124.265 549.469 124.636C549.079 125 548.606 125.183 548.05 125.183ZM559.769 142.288C558.331 142.288 557.084 141.971 556.03 141.338C554.975 140.706 554.157 139.82 553.575 138.683C553 137.545 552.712 136.215 552.712 134.694C552.712 133.173 553 131.84 553.575 130.696C554.157 129.551 554.975 128.663 556.03 128.03C557.084 127.397 558.331 127.081 559.769 127.081C561.207 127.081 562.454 127.397 563.508 128.03C564.563 128.663 565.378 129.551 565.953 130.696C566.535 131.84 566.826 133.173 566.826 134.694C566.826 136.215 566.535 137.545 565.953 138.683C565.378 139.82 564.563 140.706 563.508 141.338C562.454 141.971 561.207 142.288 559.769 142.288ZM559.788 139.507C560.568 139.507 561.22 139.293 561.744 138.865C562.268 138.43 562.658 137.848 562.914 137.12C563.176 136.391 563.307 135.579 563.307 134.684C563.307 133.783 563.176 132.968 562.914 132.239C562.658 131.504 562.268 130.919 561.744 130.485C561.22 130.05 560.568 129.833 559.788 129.833C558.989 129.833 558.324 130.05 557.794 130.485C557.27 130.919 556.877 131.504 556.614 132.239C556.359 132.968 556.231 133.783 556.231 134.684C556.231 135.579 556.359 136.391 556.614 137.12C556.877 137.848 557.27 138.43 557.794 138.865C558.324 139.293 558.989 139.507 559.788 139.507ZM573.243 133.371V142H569.772V127.273H573.089V129.775H573.262C573.6 128.951 574.141 128.295 574.882 127.81C575.63 127.324 576.554 127.081 577.653 127.081C578.669 127.081 579.555 127.298 580.309 127.733C581.07 128.168 581.658 128.797 582.073 129.622C582.495 130.446 582.703 131.447 582.696 132.623V142H579.225V133.16C579.225 132.175 578.97 131.405 578.458 130.849C577.953 130.293 577.254 130.015 576.359 130.015C575.751 130.015 575.211 130.149 574.738 130.418C574.272 130.68 573.904 131.06 573.636 131.559C573.374 132.057 573.243 132.661 573.243 133.371Z" fill="#009FE3"/>
<path d="M462.297 179.109C462.167 178.687 461.987 178.31 461.758 177.977C461.534 177.638 461.263 177.349 460.945 177.109C460.633 176.87 460.273 176.69 459.867 176.57C459.461 176.445 459.018 176.383 458.539 176.383C457.68 176.383 456.914 176.599 456.242 177.031C455.57 177.464 455.042 178.099 454.656 178.937C454.276 179.771 454.086 180.786 454.086 181.984C454.086 183.193 454.276 184.216 454.656 185.055C455.036 185.893 455.565 186.531 456.242 186.969C456.919 187.401 457.706 187.617 458.602 187.617C459.414 187.617 460.117 187.461 460.711 187.148C461.31 186.836 461.771 186.393 462.094 185.82C462.417 185.242 462.578 184.565 462.578 183.789L463.234 183.891H458.891V181.625H465.383V183.547C465.383 184.917 465.091 186.102 464.508 187.102C463.924 188.102 463.122 188.872 462.102 189.414C461.081 189.951 459.909 190.219 458.586 190.219C457.112 190.219 455.818 189.888 454.703 189.227C453.594 188.56 452.727 187.615 452.102 186.391C451.482 185.161 451.172 183.703 451.172 182.016C451.172 180.724 451.354 179.57 451.719 178.555C452.089 177.539 452.604 176.677 453.266 175.969C453.927 175.255 454.703 174.714 455.594 174.344C456.484 173.969 457.453 173.781 458.5 173.781C459.385 173.781 460.211 173.911 460.977 174.172C461.742 174.427 462.422 174.792 463.016 175.266C463.615 175.74 464.107 176.302 464.492 176.953C464.878 177.604 465.13 178.323 465.25 179.109H462.297ZM473.373 190.234C472.17 190.234 471.131 189.984 470.256 189.484C469.386 188.979 468.717 188.266 468.248 187.344C467.779 186.417 467.545 185.326 467.545 184.07C467.545 182.836 467.779 181.753 468.248 180.82C468.722 179.883 469.383 179.154 470.232 178.633C471.081 178.107 472.079 177.844 473.225 177.844C473.964 177.844 474.662 177.964 475.318 178.203C475.98 178.437 476.563 178.802 477.068 179.297C477.579 179.792 477.98 180.422 478.271 181.187C478.563 181.948 478.709 182.854 478.709 183.906V184.773H468.873V182.867H475.998C475.993 182.326 475.876 181.844 475.646 181.422C475.417 180.995 475.097 180.659 474.686 180.414C474.279 180.169 473.805 180.047 473.264 180.047C472.686 180.047 472.178 180.187 471.74 180.469C471.303 180.745 470.962 181.109 470.717 181.562C470.477 182.01 470.355 182.503 470.35 183.039V184.703C470.35 185.401 470.477 186 470.732 186.5C470.988 186.995 471.344 187.375 471.803 187.641C472.261 187.901 472.798 188.031 473.412 188.031C473.824 188.031 474.196 187.974 474.529 187.859C474.863 187.74 475.152 187.565 475.396 187.336C475.641 187.107 475.826 186.823 475.951 186.484L478.592 186.781C478.425 187.479 478.107 188.089 477.639 188.609C477.175 189.125 476.581 189.526 475.857 189.812C475.133 190.094 474.305 190.234 473.373 190.234ZM487.094 178V180.187H480.195V178H487.094ZM481.898 175.125H484.727V186.391C484.727 186.771 484.784 187.063 484.898 187.266C485.018 187.464 485.174 187.599 485.367 187.672C485.56 187.745 485.773 187.781 486.008 187.781C486.185 187.781 486.346 187.768 486.492 187.742C486.643 187.716 486.758 187.693 486.836 187.672L487.313 189.883C487.161 189.935 486.945 189.992 486.664 190.055C486.388 190.117 486.049 190.154 485.648 190.164C484.94 190.185 484.302 190.078 483.734 189.844C483.167 189.604 482.716 189.234 482.383 188.734C482.055 188.234 481.893 187.609 481.898 186.859V175.125ZM495.451 178V180.187H488.553V178H495.451ZM490.256 175.125H493.084V186.391C493.084 186.771 493.141 187.063 493.256 187.266C493.376 187.464 493.532 187.599 493.725 187.672C493.917 187.745 494.131 187.781 494.365 187.781C494.542 187.781 494.704 187.768 494.85 187.742C495.001 187.716 495.115 187.693 495.193 187.672L495.67 189.883C495.519 189.935 495.303 189.992 495.021 190.055C494.745 190.117 494.407 190.154 494.006 190.164C493.298 190.185 492.66 190.078 492.092 189.844C491.524 189.604 491.074 189.234 490.74 188.734C490.412 188.234 490.251 187.609 490.256 186.859V175.125ZM497.816 190V178H500.645V190H497.816ZM499.238 176.297C498.79 176.297 498.405 176.148 498.082 175.852C497.759 175.549 497.598 175.187 497.598 174.766C497.598 174.339 497.759 173.977 498.082 173.68C498.405 173.378 498.79 173.227 499.238 173.227C499.691 173.227 500.077 173.378 500.395 173.68C500.717 173.977 500.879 174.339 500.879 174.766C500.879 175.187 500.717 175.549 500.395 175.852C500.077 176.148 499.691 176.297 499.238 176.297ZM506.381 182.969V190H503.553V178H506.256V180.039H506.396C506.673 179.367 507.113 178.833 507.717 178.437C508.326 178.042 509.079 177.844 509.975 177.844C510.803 177.844 511.524 178.021 512.139 178.375C512.758 178.729 513.238 179.242 513.576 179.914C513.92 180.586 514.089 181.401 514.084 182.359V190H511.256V182.797C511.256 181.995 511.048 181.367 510.631 180.914C510.219 180.461 509.649 180.234 508.92 180.234C508.425 180.234 507.985 180.344 507.6 180.562C507.219 180.776 506.92 181.086 506.701 181.492C506.488 181.898 506.381 182.391 506.381 182.969ZM522.178 194.75C521.162 194.75 520.29 194.612 519.561 194.336C518.831 194.065 518.245 193.701 517.803 193.242C517.36 192.784 517.053 192.276 516.881 191.719L519.428 191.102C519.542 191.336 519.709 191.568 519.928 191.797C520.146 192.031 520.441 192.224 520.811 192.375C521.186 192.531 521.657 192.609 522.225 192.609C523.027 192.609 523.691 192.414 524.217 192.023C524.743 191.638 525.006 191.003 525.006 190.117V187.844H524.865C524.719 188.135 524.506 188.435 524.225 188.742C523.949 189.049 523.581 189.307 523.123 189.516C522.67 189.724 522.1 189.828 521.412 189.828C520.49 189.828 519.654 189.612 518.904 189.18C518.16 188.742 517.566 188.091 517.123 187.227C516.686 186.357 516.467 185.268 516.467 183.961C516.467 182.643 516.686 181.531 517.123 180.625C517.566 179.714 518.162 179.023 518.912 178.555C519.662 178.081 520.498 177.844 521.42 177.844C522.123 177.844 522.701 177.964 523.154 178.203C523.613 178.437 523.977 178.721 524.248 179.055C524.519 179.383 524.725 179.693 524.865 179.984H525.021V178H527.811V190.195C527.811 191.221 527.566 192.07 527.076 192.742C526.587 193.414 525.917 193.917 525.068 194.25C524.219 194.583 523.256 194.75 522.178 194.75ZM522.201 187.609C522.8 187.609 523.311 187.464 523.732 187.172C524.154 186.88 524.475 186.461 524.693 185.914C524.912 185.367 525.021 184.711 525.021 183.945C525.021 183.19 524.912 182.529 524.693 181.961C524.48 181.393 524.162 180.953 523.74 180.641C523.324 180.323 522.811 180.164 522.201 180.164C521.571 180.164 521.045 180.328 520.623 180.656C520.201 180.984 519.883 181.435 519.67 182.008C519.456 182.576 519.35 183.221 519.35 183.945C519.35 184.68 519.456 185.323 519.67 185.875C519.889 186.422 520.209 186.849 520.631 187.156C521.058 187.458 521.581 187.609 522.201 187.609ZM541.713 190H536.291V174H541.822C543.411 174 544.775 174.32 545.916 174.961C547.062 175.596 547.942 176.51 548.557 177.703C549.171 178.896 549.479 180.323 549.479 181.984C549.479 183.651 549.169 185.083 548.549 186.281C547.934 187.479 547.046 188.398 545.885 189.039C544.729 189.68 543.338 190 541.713 190ZM539.189 187.492H541.572C542.687 187.492 543.617 187.289 544.361 186.883C545.106 186.471 545.666 185.859 546.041 185.047C546.416 184.229 546.604 183.208 546.604 181.984C546.604 180.76 546.416 179.745 546.041 178.937C545.666 178.125 545.111 177.518 544.377 177.117C543.648 176.711 542.742 176.508 541.658 176.508H539.189V187.492ZM552.107 190V178H554.936V190H552.107ZM553.529 176.297C553.081 176.297 552.696 176.148 552.373 175.852C552.05 175.549 551.889 175.187 551.889 174.766C551.889 174.339 552.05 173.977 552.373 173.68C552.696 173.378 553.081 173.227 553.529 173.227C553.982 173.227 554.368 173.378 554.686 173.68C555.008 173.977 555.17 174.339 555.17 174.766C555.17 175.187 555.008 175.549 554.686 175.852C554.368 176.148 553.982 176.297 553.529 176.297ZM557.844 194.5V178H560.625V179.984H560.789C560.935 179.693 561.141 179.383 561.406 179.055C561.672 178.721 562.031 178.437 562.484 178.203C562.938 177.964 563.516 177.844 564.219 177.844C565.146 177.844 565.982 178.081 566.727 178.555C567.477 179.023 568.07 179.719 568.508 180.641C568.951 181.557 569.172 182.682 569.172 184.016C569.172 185.333 568.956 186.453 568.523 187.375C568.091 188.297 567.503 189 566.758 189.484C566.013 189.969 565.169 190.211 564.227 190.211C563.539 190.211 562.969 190.096 562.516 189.867C562.063 189.638 561.698 189.362 561.422 189.039C561.151 188.711 560.94 188.401 560.789 188.109H560.672V194.5H557.844ZM560.617 184C560.617 184.776 560.727 185.456 560.945 186.039C561.169 186.622 561.49 187.078 561.906 187.406C562.328 187.729 562.839 187.891 563.438 187.891C564.063 187.891 564.586 187.724 565.008 187.391C565.43 187.052 565.747 186.591 565.961 186.008C566.18 185.419 566.289 184.75 566.289 184C566.289 183.255 566.182 182.594 565.969 182.016C565.755 181.437 565.438 180.984 565.016 180.656C564.594 180.328 564.068 180.164 563.438 180.164C562.833 180.164 562.32 180.323 561.898 180.641C561.477 180.958 561.156 181.404 560.938 181.977C560.724 182.549 560.617 183.224 560.617 184ZM574.422 174V190H571.594V174H574.422ZM582.564 190.234C581.393 190.234 580.377 189.977 579.518 189.461C578.658 188.945 577.992 188.224 577.518 187.297C577.049 186.37 576.814 185.286 576.814 184.047C576.814 182.807 577.049 181.721 577.518 180.789C577.992 179.857 578.658 179.133 579.518 178.617C580.377 178.102 581.393 177.844 582.564 177.844C583.736 177.844 584.752 178.102 585.611 178.617C586.471 179.133 587.135 179.857 587.604 180.789C588.077 181.721 588.314 182.807 588.314 184.047C588.314 185.286 588.077 186.37 587.604 187.297C587.135 188.224 586.471 188.945 585.611 189.461C584.752 189.977 583.736 190.234 582.564 190.234ZM582.58 187.969C583.215 187.969 583.747 187.794 584.174 187.445C584.601 187.091 584.919 186.617 585.127 186.023C585.34 185.43 585.447 184.768 585.447 184.039C585.447 183.305 585.34 182.641 585.127 182.047C584.919 181.448 584.601 180.971 584.174 180.617C583.747 180.263 583.215 180.086 582.58 180.086C581.929 180.086 581.387 180.263 580.955 180.617C580.528 180.971 580.208 181.448 579.994 182.047C579.786 182.641 579.682 183.305 579.682 184.039C579.682 184.768 579.786 185.43 579.994 186.023C580.208 186.617 580.528 187.091 580.955 187.445C581.387 187.794 581.929 187.969 582.58 187.969ZM590.715 190V178H593.418V180.039H593.559C593.809 179.352 594.223 178.815 594.801 178.43C595.379 178.039 596.069 177.844 596.871 177.844C597.684 177.844 598.368 178.042 598.926 178.437C599.488 178.828 599.884 179.362 600.113 180.039H600.238C600.504 179.372 600.952 178.841 601.582 178.445C602.217 178.044 602.97 177.844 603.84 177.844C604.944 177.844 605.845 178.193 606.543 178.891C607.241 179.589 607.59 180.607 607.59 181.945V190H604.754V182.383C604.754 181.638 604.556 181.094 604.16 180.75C603.764 180.401 603.28 180.227 602.707 180.227C602.025 180.227 601.491 180.44 601.105 180.867C600.725 181.289 600.535 181.839 600.535 182.516V190H597.762V182.266C597.762 181.646 597.574 181.151 597.199 180.781C596.829 180.411 596.345 180.227 595.746 180.227C595.34 180.227 594.97 180.331 594.637 180.539C594.303 180.742 594.038 181.031 593.84 181.406C593.642 181.776 593.543 182.208 593.543 182.703V190H590.715ZM613.912 190.242C613.152 190.242 612.467 190.107 611.857 189.836C611.253 189.56 610.774 189.154 610.42 188.617C610.071 188.081 609.896 187.419 609.896 186.633C609.896 185.956 610.021 185.396 610.271 184.953C610.521 184.51 610.863 184.156 611.295 183.891C611.727 183.625 612.214 183.424 612.756 183.289C613.303 183.148 613.868 183.047 614.451 182.984C615.154 182.911 615.725 182.846 616.162 182.789C616.6 182.727 616.917 182.633 617.115 182.508C617.318 182.378 617.42 182.177 617.42 181.906V181.859C617.42 181.271 617.245 180.815 616.896 180.492C616.548 180.169 616.045 180.008 615.389 180.008C614.696 180.008 614.146 180.159 613.74 180.461C613.339 180.763 613.068 181.12 612.928 181.531L610.287 181.156C610.495 180.427 610.839 179.818 611.318 179.328C611.798 178.833 612.383 178.464 613.076 178.219C613.769 177.969 614.535 177.844 615.373 177.844C615.951 177.844 616.527 177.911 617.1 178.047C617.673 178.182 618.196 178.406 618.67 178.719C619.144 179.026 619.524 179.445 619.811 179.977C620.102 180.508 620.248 181.172 620.248 181.969V190H617.529V188.352H617.436C617.264 188.685 617.021 188.997 616.709 189.289C616.402 189.576 616.014 189.807 615.545 189.984C615.081 190.156 614.537 190.242 613.912 190.242ZM614.646 188.164C615.214 188.164 615.706 188.052 616.123 187.828C616.54 187.599 616.86 187.297 617.084 186.922C617.313 186.547 617.428 186.138 617.428 185.695V184.281C617.339 184.354 617.188 184.422 616.975 184.484C616.766 184.547 616.532 184.602 616.271 184.648C616.011 184.695 615.753 184.737 615.498 184.773C615.243 184.81 615.021 184.841 614.834 184.867C614.412 184.924 614.035 185.018 613.701 185.148C613.368 185.279 613.105 185.461 612.912 185.695C612.719 185.924 612.623 186.221 612.623 186.586C612.623 187.107 612.813 187.5 613.193 187.766C613.574 188.031 614.058 188.164 614.646 188.164Z" fill="#8B8888"/>
<path d="M724.187 128.744C716.972 122.406 703.775 123.679 694.741 131.615C689.807 135.948 686.971 142.096 686.909 146.402C686.847 150.681 687.711 156.937 682.747 161.298L669.673 172.781L674.052 176.627L687.125 165.144C692.089 160.783 699.212 161.542 704.083 161.487C708.955 161.433 715.985 158.942 720.918 154.608C729.922 146.673 731.402 135.081 724.187 128.744V128.744ZM695.82 153.633C691.102 149.49 692.582 141.148 699.088 135.433C705.594 129.719 715.06 128.419 719.808 132.562C724.526 136.706 723.046 145.048 716.54 150.762C710.034 156.477 700.568 157.777 695.82 153.633V153.633ZM719.5 168.042C721.134 168.042 722.707 168.61 723.847 169.64C726.252 171.752 726.252 175.192 723.847 177.304C722.707 178.306 721.134 178.875 719.5 178.875C717.866 178.875 716.293 178.306 715.152 177.277C712.747 175.165 712.747 171.725 715.152 169.612C716.293 168.61 717.866 168.042 719.5 168.042ZM719.5 162.625C717.058 162.621 714.669 163.254 712.638 164.443C710.606 165.633 709.022 167.326 708.087 169.308C707.152 171.29 706.909 173.471 707.387 175.574C707.865 177.678 709.044 179.609 710.774 181.123C713.179 183.235 716.355 184.292 719.5 184.292C721.942 184.296 724.33 183.663 726.362 182.473C728.394 181.283 729.978 179.59 730.913 177.609C731.848 175.627 732.091 173.446 731.613 171.343C731.135 169.239 729.956 167.308 728.226 165.794C727.08 164.788 725.719 163.99 724.222 163.446C722.725 162.903 721.12 162.624 719.5 162.625V162.625Z" fill="black"/>
<path d="M760.458 143H756.662L763.575 123.364H767.966L774.888 143H771.092L765.847 127.391H765.694L760.458 143ZM760.583 135.301H770.938V138.158H760.583V135.301ZM783.753 128.273V130.957H775.286V128.273H783.753ZM777.377 124.744H780.847V138.57C780.847 139.037 780.918 139.395 781.058 139.644C781.205 139.887 781.397 140.053 781.634 140.143C781.87 140.232 782.132 140.277 782.42 140.277C782.637 140.277 782.835 140.261 783.014 140.229C783.2 140.197 783.34 140.168 783.436 140.143L784.021 142.856C783.836 142.92 783.57 142.99 783.225 143.067C782.887 143.144 782.471 143.189 781.979 143.201C781.11 143.227 780.327 143.096 779.63 142.808C778.933 142.514 778.38 142.06 777.971 141.447C777.568 140.833 777.37 140.066 777.377 139.146V124.744ZM790.443 134.371V143H786.972V123.364H790.366V130.775H790.539C790.884 129.944 791.418 129.289 792.14 128.81C792.869 128.324 793.795 128.081 794.92 128.081C795.943 128.081 796.835 128.295 797.595 128.723C798.356 129.152 798.944 129.778 799.36 130.603C799.782 131.427 799.992 132.434 799.992 133.623V143H796.522V134.16C796.522 133.169 796.266 132.399 795.755 131.849C795.25 131.293 794.54 131.015 793.626 131.015C793.012 131.015 792.463 131.149 791.977 131.418C791.497 131.68 791.12 132.06 790.845 132.559C790.577 133.057 790.443 133.661 790.443 134.371ZM807.001 123.364V143H803.53V123.364H807.001ZM817.09 143.288C815.614 143.288 814.339 142.981 813.265 142.367C812.197 141.747 811.376 140.871 810.801 139.74C810.225 138.602 809.938 137.263 809.938 135.723C809.938 134.208 810.225 132.878 810.801 131.734C811.382 130.583 812.194 129.689 813.236 129.049C814.278 128.404 815.502 128.081 816.908 128.081C817.816 128.081 818.672 128.228 819.478 128.522C820.29 128.81 821.006 129.257 821.626 129.864C822.252 130.472 822.744 131.245 823.102 132.185C823.46 133.118 823.639 134.23 823.639 135.521V136.586H811.568V134.246H820.312C820.306 133.581 820.162 132.99 819.881 132.472C819.599 131.948 819.206 131.536 818.701 131.235C818.203 130.935 817.621 130.785 816.956 130.785C816.247 130.785 815.623 130.957 815.086 131.303C814.55 131.641 814.131 132.089 813.83 132.645C813.536 133.195 813.386 133.799 813.38 134.457V136.499C813.38 137.356 813.536 138.091 813.85 138.705C814.163 139.312 814.601 139.778 815.163 140.104C815.726 140.424 816.384 140.584 817.138 140.584C817.643 140.584 818.1 140.513 818.509 140.373C818.919 140.226 819.273 140.012 819.574 139.73C819.874 139.449 820.101 139.101 820.254 138.685L823.495 139.05C823.291 139.906 822.901 140.654 822.325 141.293C821.757 141.926 821.028 142.418 820.139 142.77C819.251 143.115 818.235 143.288 817.09 143.288ZM833.929 128.273V130.957H825.463V128.273H833.929ZM827.553 124.744H831.024V138.57C831.024 139.037 831.095 139.395 831.235 139.644C831.382 139.887 831.574 140.053 831.81 140.143C832.047 140.232 832.309 140.277 832.597 140.277C832.814 140.277 833.012 140.261 833.191 140.229C833.377 140.197 833.517 140.168 833.613 140.143L834.198 142.856C834.013 142.92 833.747 142.99 833.402 143.067C833.063 143.144 832.648 143.189 832.156 143.201C831.286 143.227 830.503 143.096 829.807 142.808C829.11 142.514 828.557 142.06 828.148 141.447C827.745 140.833 827.547 140.066 827.553 139.146V124.744ZM836.832 143V128.273H840.303V143H836.832ZM838.577 126.183C838.028 126.183 837.555 126 837.158 125.636C836.762 125.265 836.564 124.821 836.564 124.303C836.564 123.779 836.762 123.335 837.158 122.971C837.555 122.6 838.028 122.414 838.577 122.414C839.133 122.414 839.606 122.6 839.996 122.971C840.393 123.335 840.591 123.779 840.591 124.303C840.591 124.821 840.393 125.265 839.996 125.636C839.606 126 839.133 126.183 838.577 126.183ZM850.296 143.288C848.826 143.288 847.564 142.965 846.509 142.319C845.461 141.674 844.652 140.782 844.083 139.644C843.521 138.5 843.239 137.183 843.239 135.694C843.239 134.198 843.527 132.878 844.102 131.734C844.678 130.583 845.489 129.689 846.538 129.049C847.592 128.404 848.839 128.081 850.277 128.081C851.472 128.081 852.53 128.301 853.451 128.743C854.378 129.177 855.116 129.794 855.666 130.593C856.215 131.386 856.528 132.312 856.605 133.374H853.288C853.153 132.664 852.834 132.073 852.329 131.6C851.83 131.12 851.162 130.881 850.325 130.881C849.616 130.881 848.992 131.072 848.455 131.456C847.918 131.833 847.5 132.376 847.199 133.086C846.905 133.795 846.758 134.646 846.758 135.636C846.758 136.64 846.905 137.503 847.199 138.225C847.493 138.941 847.906 139.494 848.436 139.884C848.973 140.267 849.603 140.459 850.325 140.459C850.836 140.459 851.293 140.363 851.696 140.172C852.105 139.973 852.447 139.689 852.722 139.318C852.997 138.947 853.185 138.497 853.288 137.966H856.605C856.522 139.008 856.215 139.932 855.685 140.737C855.154 141.536 854.432 142.163 853.518 142.616C852.604 143.064 851.53 143.288 850.296 143.288ZM871.095 132.165L867.931 132.511C867.842 132.191 867.685 131.891 867.461 131.609C867.244 131.328 866.95 131.101 866.579 130.929C866.208 130.756 865.755 130.67 865.218 130.67C864.495 130.67 863.888 130.826 863.396 131.14C862.91 131.453 862.67 131.859 862.677 132.357C862.67 132.786 862.827 133.134 863.147 133.402C863.473 133.671 864.01 133.891 864.757 134.064L867.27 134.601C868.663 134.901 869.699 135.377 870.376 136.029C871.06 136.681 871.405 137.535 871.412 138.589C871.405 139.516 871.134 140.335 870.597 141.044C870.066 141.747 869.328 142.297 868.382 142.693C867.436 143.089 866.349 143.288 865.122 143.288C863.319 143.288 861.868 142.911 860.769 142.156C859.669 141.396 859.014 140.338 858.803 138.983L862.188 138.657C862.341 139.321 862.667 139.823 863.166 140.162C863.664 140.501 864.313 140.67 865.112 140.67C865.937 140.67 866.598 140.501 867.097 140.162C867.602 139.823 867.854 139.404 867.854 138.906C867.854 138.484 867.691 138.136 867.365 137.861C867.046 137.586 866.547 137.375 865.87 137.228L863.358 136.701C861.945 136.407 860.9 135.911 860.222 135.214C859.545 134.511 859.209 133.623 859.216 132.549C859.209 131.641 859.455 130.855 859.954 130.19C860.459 129.519 861.159 129.001 862.054 128.637C862.955 128.266 863.994 128.081 865.17 128.081C866.896 128.081 868.254 128.449 869.245 129.184C870.242 129.919 870.859 130.913 871.095 132.165Z" fill="#009FE3"/>
<path d="M777.273 179.398C777.201 178.716 776.893 178.185 776.352 177.805C775.815 177.424 775.117 177.234 774.258 177.234C773.654 177.234 773.135 177.326 772.703 177.508C772.271 177.69 771.94 177.937 771.711 178.25C771.482 178.562 771.365 178.919 771.359 179.32C771.359 179.654 771.435 179.943 771.586 180.187C771.742 180.432 771.953 180.641 772.219 180.812C772.484 180.979 772.779 181.12 773.102 181.234C773.424 181.349 773.75 181.445 774.078 181.523L775.578 181.898C776.182 182.039 776.763 182.229 777.32 182.469C777.883 182.708 778.385 183.01 778.828 183.375C779.276 183.74 779.63 184.18 779.891 184.695C780.151 185.211 780.281 185.815 780.281 186.508C780.281 187.445 780.042 188.271 779.563 188.984C779.083 189.693 778.391 190.247 777.484 190.648C776.583 191.044 775.492 191.242 774.211 191.242C772.966 191.242 771.885 191.049 770.969 190.664C770.057 190.279 769.344 189.716 768.828 188.977C768.318 188.237 768.042 187.336 768 186.273H770.852C770.893 186.831 771.065 187.294 771.367 187.664C771.669 188.034 772.063 188.31 772.547 188.492C773.036 188.674 773.583 188.766 774.188 188.766C774.818 188.766 775.37 188.672 775.844 188.484C776.323 188.292 776.698 188.026 776.969 187.687C777.24 187.344 777.378 186.943 777.383 186.484C777.378 186.068 777.255 185.724 777.016 185.453C776.776 185.177 776.44 184.948 776.008 184.766C775.581 184.578 775.081 184.411 774.508 184.266L772.688 183.797C771.37 183.458 770.328 182.945 769.563 182.258C768.802 181.565 768.422 180.646 768.422 179.5C768.422 178.557 768.677 177.732 769.188 177.023C769.703 176.315 770.404 175.766 771.289 175.375C772.174 174.979 773.177 174.781 774.297 174.781C775.432 174.781 776.427 174.979 777.281 175.375C778.141 175.766 778.815 176.31 779.305 177.008C779.794 177.701 780.047 178.497 780.062 179.398H777.273ZM782.74 195.5V179H785.521V180.984H785.686C785.831 180.693 786.037 180.383 786.303 180.055C786.568 179.721 786.928 179.437 787.381 179.203C787.834 178.964 788.412 178.844 789.115 178.844C790.042 178.844 790.878 179.081 791.623 179.555C792.373 180.023 792.967 180.719 793.404 181.641C793.847 182.557 794.068 183.682 794.068 185.016C794.068 186.333 793.852 187.453 793.42 188.375C792.988 189.297 792.399 190 791.654 190.484C790.91 190.969 790.066 191.211 789.123 191.211C788.436 191.211 787.865 191.096 787.412 190.867C786.959 190.638 786.594 190.362 786.318 190.039C786.048 189.711 785.837 189.401 785.686 189.109H785.568V195.5H782.74ZM785.514 185C785.514 185.776 785.623 186.456 785.842 187.039C786.066 187.622 786.386 188.078 786.803 188.406C787.225 188.729 787.735 188.891 788.334 188.891C788.959 188.891 789.482 188.724 789.904 188.391C790.326 188.052 790.644 187.591 790.857 187.008C791.076 186.419 791.186 185.75 791.186 185C791.186 184.255 791.079 183.594 790.865 183.016C790.652 182.437 790.334 181.984 789.912 181.656C789.49 181.328 788.964 181.164 788.334 181.164C787.73 181.164 787.217 181.323 786.795 181.641C786.373 181.958 786.053 182.404 785.834 182.977C785.62 183.549 785.514 184.224 785.514 185ZM801.725 191.234C800.553 191.234 799.537 190.977 798.678 190.461C797.818 189.945 797.152 189.224 796.678 188.297C796.209 187.37 795.975 186.286 795.975 185.047C795.975 183.807 796.209 182.721 796.678 181.789C797.152 180.857 797.818 180.133 798.678 179.617C799.537 179.102 800.553 178.844 801.725 178.844C802.896 178.844 803.912 179.102 804.771 179.617C805.631 180.133 806.295 180.857 806.764 181.789C807.238 182.721 807.475 183.807 807.475 185.047C807.475 186.286 807.238 187.37 806.764 188.297C806.295 189.224 805.631 189.945 804.771 190.461C803.912 190.977 802.896 191.234 801.725 191.234ZM801.74 188.969C802.376 188.969 802.907 188.794 803.334 188.445C803.761 188.091 804.079 187.617 804.287 187.023C804.501 186.43 804.607 185.768 804.607 185.039C804.607 184.305 804.501 183.641 804.287 183.047C804.079 182.448 803.761 181.971 803.334 181.617C802.907 181.263 802.376 181.086 801.74 181.086C801.089 181.086 800.548 181.263 800.115 181.617C799.688 181.971 799.368 182.448 799.154 183.047C798.946 183.641 798.842 184.305 798.842 185.039C798.842 185.768 798.946 186.43 799.154 187.023C799.368 187.617 799.688 188.091 800.115 188.445C800.548 188.794 801.089 188.969 801.74 188.969ZM809.875 191V179H812.617V181H812.742C812.961 180.307 813.336 179.773 813.867 179.398C814.404 179.018 815.016 178.828 815.703 178.828C815.859 178.828 816.034 178.836 816.227 178.852C816.424 178.862 816.589 178.88 816.719 178.906V181.508C816.599 181.466 816.409 181.43 816.148 181.398C815.893 181.362 815.646 181.344 815.406 181.344C814.891 181.344 814.427 181.456 814.016 181.68C813.609 181.898 813.289 182.203 813.055 182.594C812.82 182.984 812.703 183.435 812.703 183.945V191H809.875ZM825.234 179V181.187H818.336V179H825.234ZM820.039 176.125H822.867V187.391C822.867 187.771 822.924 188.063 823.039 188.266C823.159 188.464 823.315 188.599 823.508 188.672C823.701 188.745 823.914 188.781 824.148 188.781C824.326 188.781 824.487 188.768 824.633 188.742C824.784 188.716 824.898 188.693 824.977 188.672L825.453 190.883C825.302 190.935 825.086 190.992 824.805 191.055C824.529 191.117 824.19 191.154 823.789 191.164C823.081 191.185 822.443 191.078 821.875 190.844C821.307 190.604 820.857 190.234 820.523 189.734C820.195 189.234 820.034 188.609 820.039 187.859V176.125ZM836.912 182.172L834.334 182.453C834.261 182.193 834.133 181.948 833.951 181.719C833.774 181.49 833.535 181.305 833.232 181.164C832.93 181.023 832.561 180.953 832.123 180.953C831.535 180.953 831.04 181.081 830.639 181.336C830.243 181.591 830.048 181.922 830.053 182.328C830.048 182.677 830.175 182.961 830.436 183.18C830.701 183.398 831.139 183.578 831.748 183.719L833.795 184.156C834.93 184.401 835.774 184.789 836.326 185.32C836.883 185.852 837.165 186.547 837.17 187.406C837.165 188.161 836.943 188.828 836.506 189.406C836.074 189.979 835.472 190.427 834.701 190.75C833.93 191.073 833.045 191.234 832.045 191.234C830.576 191.234 829.394 190.927 828.498 190.312C827.602 189.693 827.068 188.831 826.896 187.727L829.654 187.461C829.779 188.003 830.045 188.411 830.451 188.687C830.857 188.964 831.386 189.102 832.037 189.102C832.709 189.102 833.248 188.964 833.654 188.687C834.066 188.411 834.271 188.07 834.271 187.664C834.271 187.32 834.139 187.036 833.873 186.812C833.613 186.589 833.206 186.417 832.654 186.297L830.607 185.867C829.456 185.628 828.605 185.224 828.053 184.656C827.501 184.083 827.227 183.359 827.232 182.484C827.227 181.745 827.428 181.104 827.834 180.562C828.245 180.016 828.816 179.594 829.545 179.297C830.279 178.995 831.126 178.844 832.084 178.844C833.49 178.844 834.597 179.143 835.404 179.742C836.217 180.341 836.719 181.151 836.912 182.172ZM848.412 191.242C847.652 191.242 846.967 191.107 846.357 190.836C845.753 190.56 845.274 190.154 844.92 189.617C844.571 189.081 844.396 188.419 844.396 187.633C844.396 186.956 844.521 186.396 844.771 185.953C845.021 185.51 845.363 185.156 845.795 184.891C846.227 184.625 846.714 184.424 847.256 184.289C847.803 184.148 848.368 184.047 848.951 183.984C849.654 183.911 850.225 183.846 850.662 183.789C851.1 183.727 851.417 183.633 851.615 183.508C851.818 183.378 851.92 183.177 851.92 182.906V182.859C851.92 182.271 851.745 181.815 851.396 181.492C851.048 181.169 850.545 181.008 849.889 181.008C849.196 181.008 848.646 181.159 848.24 181.461C847.839 181.763 847.568 182.12 847.428 182.531L844.787 182.156C844.995 181.427 845.339 180.818 845.818 180.328C846.298 179.833 846.883 179.464 847.576 179.219C848.269 178.969 849.035 178.844 849.873 178.844C850.451 178.844 851.027 178.911 851.6 179.047C852.173 179.182 852.696 179.406 853.17 179.719C853.644 180.026 854.024 180.445 854.311 180.977C854.602 181.508 854.748 182.172 854.748 182.969V191H852.029V189.352H851.936C851.764 189.685 851.521 189.997 851.209 190.289C850.902 190.576 850.514 190.807 850.045 190.984C849.581 191.156 849.037 191.242 848.412 191.242ZM849.146 189.164C849.714 189.164 850.206 189.052 850.623 188.828C851.04 188.599 851.36 188.297 851.584 187.922C851.813 187.547 851.928 187.138 851.928 186.695V185.281C851.839 185.354 851.688 185.422 851.475 185.484C851.266 185.547 851.032 185.602 850.771 185.648C850.511 185.695 850.253 185.737 849.998 185.773C849.743 185.81 849.521 185.841 849.334 185.867C848.912 185.924 848.535 186.018 848.201 186.148C847.868 186.279 847.605 186.461 847.412 186.695C847.219 186.924 847.123 187.221 847.123 187.586C847.123 188.107 847.313 188.5 847.693 188.766C848.074 189.031 848.558 189.164 849.146 189.164ZM860.42 183.969V191H857.592V179H860.295V181.039H860.436C860.712 180.367 861.152 179.833 861.756 179.437C862.365 179.042 863.118 178.844 864.014 178.844C864.842 178.844 865.563 179.021 866.178 179.375C866.798 179.729 867.277 180.242 867.615 180.914C867.959 181.586 868.128 182.401 868.123 183.359V191H865.295V183.797C865.295 182.995 865.087 182.367 864.67 181.914C864.258 181.461 863.688 181.234 862.959 181.234C862.464 181.234 862.024 181.344 861.639 181.562C861.258 181.776 860.959 182.086 860.74 182.492C860.527 182.898 860.42 183.391 860.42 183.969ZM875.451 191.211C874.508 191.211 873.665 190.969 872.92 190.484C872.175 190 871.587 189.297 871.154 188.375C870.722 187.453 870.506 186.333 870.506 185.016C870.506 183.682 870.725 182.557 871.162 181.641C871.605 180.719 872.201 180.023 872.951 179.555C873.701 179.081 874.537 178.844 875.459 178.844C876.162 178.844 876.74 178.964 877.193 179.203C877.646 179.437 878.006 179.721 878.271 180.055C878.537 180.383 878.743 180.693 878.889 180.984H879.006V175H881.842V191H879.061V189.109H878.889C878.743 189.401 878.532 189.711 878.256 190.039C877.98 190.362 877.615 190.638 877.162 190.867C876.709 191.096 876.139 191.211 875.451 191.211ZM876.24 188.891C876.839 188.891 877.35 188.729 877.771 188.406C878.193 188.078 878.514 187.622 878.732 187.039C878.951 186.456 879.061 185.776 879.061 185C879.061 184.224 878.951 183.549 878.732 182.977C878.519 182.404 878.201 181.958 877.779 181.641C877.363 181.323 876.85 181.164 876.24 181.164C875.61 181.164 875.084 181.328 874.662 181.656C874.24 181.984 873.923 182.437 873.709 183.016C873.495 183.594 873.389 184.255 873.389 185C873.389 185.75 873.495 186.419 873.709 187.008C873.928 187.591 874.248 188.052 874.67 188.391C875.097 188.724 875.62 188.891 876.24 188.891ZM895.547 191.234C894.349 191.234 893.32 190.971 892.461 190.445C891.607 189.919 890.948 189.193 890.484 188.266C890.026 187.333 889.797 186.26 889.797 185.047C889.797 183.828 890.031 182.753 890.5 181.82C890.969 180.883 891.63 180.154 892.484 179.633C893.344 179.107 894.359 178.844 895.531 178.844C896.505 178.844 897.367 179.023 898.117 179.383C898.872 179.737 899.474 180.24 899.922 180.891C900.37 181.536 900.625 182.292 900.688 183.156H897.984C897.875 182.578 897.615 182.096 897.203 181.711C896.797 181.32 896.253 181.125 895.57 181.125C894.992 181.125 894.484 181.281 894.047 181.594C893.609 181.901 893.268 182.344 893.023 182.922C892.784 183.5 892.664 184.193 892.664 185C892.664 185.818 892.784 186.521 893.023 187.109C893.263 187.693 893.599 188.143 894.031 188.461C894.469 188.773 894.982 188.93 895.57 188.93C895.987 188.93 896.359 188.852 896.688 188.695C897.021 188.534 897.299 188.302 897.523 188C897.747 187.698 897.901 187.331 897.984 186.898H900.688C900.62 187.747 900.37 188.5 899.937 189.156C899.505 189.807 898.917 190.318 898.172 190.687C897.427 191.052 896.552 191.234 895.547 191.234ZM905.838 175V191H903.01V175H905.838ZM916.395 185.953V179H919.223V191H916.48V188.867H916.355C916.085 189.539 915.639 190.089 915.02 190.516C914.405 190.943 913.647 191.156 912.746 191.156C911.96 191.156 911.264 190.982 910.66 190.633C910.061 190.279 909.592 189.766 909.254 189.094C908.915 188.417 908.746 187.599 908.746 186.641V179H911.574V186.203C911.574 186.964 911.783 187.568 912.199 188.016C912.616 188.464 913.163 188.687 913.84 188.687C914.257 188.687 914.66 188.586 915.051 188.383C915.441 188.18 915.762 187.878 916.012 187.477C916.267 187.07 916.395 186.562 916.395 185.953ZM922.256 191V175H925.084V180.984H925.201C925.347 180.693 925.553 180.383 925.818 180.055C926.084 179.721 926.443 179.437 926.896 179.203C927.35 178.964 927.928 178.844 928.631 178.844C929.558 178.844 930.394 179.081 931.139 179.555C931.889 180.023 932.482 180.719 932.92 181.641C933.363 182.557 933.584 183.682 933.584 185.016C933.584 186.333 933.368 187.453 932.936 188.375C932.503 189.297 931.915 190 931.17 190.484C930.425 190.969 929.581 191.211 928.639 191.211C927.951 191.211 927.381 191.096 926.928 190.867C926.475 190.638 926.11 190.362 925.834 190.039C925.563 189.711 925.352 189.401 925.201 189.109H925.037V191H922.256ZM925.029 185C925.029 185.776 925.139 186.456 925.357 187.039C925.581 187.622 925.902 188.078 926.318 188.406C926.74 188.729 927.251 188.891 927.85 188.891C928.475 188.891 928.998 188.724 929.42 188.391C929.842 188.052 930.16 187.591 930.373 187.008C930.592 186.419 930.701 185.75 930.701 185C930.701 184.255 930.594 183.594 930.381 183.016C930.167 182.437 929.85 181.984 929.428 181.656C929.006 181.328 928.48 181.164 927.85 181.164C927.245 181.164 926.732 181.323 926.311 181.641C925.889 181.958 925.568 182.404 925.35 182.977C925.136 183.549 925.029 184.224 925.029 185ZM945.473 182.172L942.895 182.453C942.822 182.193 942.694 181.948 942.512 181.719C942.335 181.49 942.095 181.305 941.793 181.164C941.491 181.023 941.121 180.953 940.684 180.953C940.095 180.953 939.6 181.081 939.199 181.336C938.803 181.591 938.608 181.922 938.613 182.328C938.608 182.677 938.736 182.961 938.996 183.18C939.262 183.398 939.699 183.578 940.309 183.719L942.355 184.156C943.491 184.401 944.335 184.789 944.887 185.32C945.444 185.852 945.725 186.547 945.73 187.406C945.725 188.161 945.504 188.828 945.066 189.406C944.634 189.979 944.033 190.427 943.262 190.75C942.491 191.073 941.605 191.234 940.605 191.234C939.137 191.234 937.954 190.927 937.059 190.312C936.163 189.693 935.629 188.831 935.457 187.727L938.215 187.461C938.34 188.003 938.605 188.411 939.012 188.687C939.418 188.964 939.947 189.102 940.598 189.102C941.27 189.102 941.809 188.964 942.215 188.687C942.626 188.411 942.832 188.07 942.832 187.664C942.832 187.32 942.699 187.036 942.434 186.812C942.173 186.589 941.767 186.417 941.215 186.297L939.168 185.867C938.017 185.628 937.165 185.224 936.613 184.656C936.061 184.083 935.788 183.359 935.793 182.484C935.788 181.745 935.988 181.104 936.395 180.562C936.806 180.016 937.376 179.594 938.105 179.297C938.84 178.995 939.686 178.844 940.645 178.844C942.051 178.844 943.158 179.143 943.965 179.742C944.777 180.341 945.28 181.151 945.473 182.172Z" fill="#8B8888"/>
<path d="M1088.61 128.762C1088.52 127.924 1088.14 127.272 1087.48 126.806C1086.82 126.339 1085.96 126.106 1084.91 126.106C1084.17 126.106 1083.53 126.218 1083 126.441C1082.47 126.665 1082.06 126.969 1081.78 127.352C1081.5 127.736 1081.36 128.174 1081.35 128.666C1081.35 129.075 1081.44 129.43 1081.63 129.73C1081.82 130.031 1082.08 130.286 1082.4 130.497C1082.73 130.702 1083.09 130.874 1083.49 131.015C1083.88 131.156 1084.28 131.274 1084.69 131.37L1086.53 131.83C1087.27 132.002 1087.98 132.236 1088.67 132.53C1089.36 132.824 1089.97 133.195 1090.52 133.642C1091.07 134.089 1091.5 134.63 1091.82 135.262C1092.14 135.895 1092.3 136.637 1092.3 137.487C1092.3 138.637 1092.01 139.651 1091.42 140.526C1090.83 141.396 1089.98 142.076 1088.87 142.569C1087.76 143.054 1086.42 143.297 1084.85 143.297C1083.32 143.297 1082 143.061 1080.87 142.588C1079.75 142.115 1078.88 141.424 1078.24 140.517C1077.62 139.609 1077.28 138.503 1077.23 137.199H1080.73C1080.78 137.883 1080.99 138.452 1081.36 138.906C1081.73 139.36 1082.21 139.699 1082.81 139.922C1083.41 140.146 1084.08 140.258 1084.82 140.258C1085.59 140.258 1086.27 140.143 1086.85 139.913C1087.44 139.676 1087.9 139.35 1088.23 138.935C1088.57 138.513 1088.74 138.021 1088.74 137.458C1088.74 136.947 1088.59 136.525 1088.29 136.192C1088 135.854 1087.59 135.572 1087.06 135.349C1086.53 135.119 1085.92 134.914 1085.21 134.735L1082.98 134.16C1081.36 133.744 1080.08 133.115 1079.14 132.271C1078.21 131.421 1077.75 130.293 1077.75 128.886C1077.75 127.729 1078.06 126.716 1078.68 125.847C1079.32 124.978 1080.18 124.303 1081.26 123.824C1082.35 123.338 1083.58 123.095 1084.96 123.095C1086.35 123.095 1087.57 123.338 1088.62 123.824C1089.67 124.303 1090.5 124.971 1091.1 125.828C1091.7 126.678 1092.01 127.656 1092.03 128.762H1088.61ZM1101.74 143.288C1100.3 143.288 1099.06 142.971 1098 142.338C1096.95 141.706 1096.13 140.82 1095.55 139.683C1094.97 138.545 1094.68 137.215 1094.68 135.694C1094.68 134.173 1094.97 132.84 1095.55 131.696C1096.13 130.551 1096.95 129.663 1098 129.03C1099.06 128.397 1100.3 128.081 1101.74 128.081C1103.18 128.081 1104.43 128.397 1105.48 129.03C1106.54 129.663 1107.35 130.551 1107.93 131.696C1108.51 132.84 1108.8 134.173 1108.8 135.694C1108.8 137.215 1108.51 138.545 1107.93 139.683C1107.35 140.82 1106.54 141.706 1105.48 142.338C1104.43 142.971 1103.18 143.288 1101.74 143.288ZM1101.76 140.507C1102.54 140.507 1103.19 140.293 1103.72 139.865C1104.24 139.43 1104.63 138.848 1104.89 138.12C1105.15 137.391 1105.28 136.579 1105.28 135.684C1105.28 134.783 1105.15 133.968 1104.89 133.239C1104.63 132.504 1104.24 131.919 1103.72 131.485C1103.19 131.05 1102.54 130.833 1101.76 130.833C1100.96 130.833 1100.3 131.05 1099.77 131.485C1099.24 131.919 1098.85 132.504 1098.59 133.239C1098.33 133.968 1098.2 134.783 1098.2 135.684C1098.2 136.579 1098.33 137.391 1098.59 138.12C1098.85 138.848 1099.24 139.43 1099.77 139.865C1100.3 140.293 1100.96 140.507 1101.76 140.507ZM1118.17 143.288C1116.7 143.288 1115.44 142.965 1114.38 142.319C1113.33 141.674 1112.52 140.782 1111.96 139.644C1111.39 138.5 1111.11 137.183 1111.11 135.694C1111.11 134.198 1111.4 132.878 1111.97 131.734C1112.55 130.583 1113.36 129.689 1114.41 129.049C1115.46 128.404 1116.71 128.081 1118.15 128.081C1119.34 128.081 1120.4 128.301 1121.32 128.743C1122.25 129.177 1122.99 129.794 1123.54 130.593C1124.09 131.386 1124.4 132.312 1124.48 133.374H1121.16C1121.03 132.664 1120.71 132.073 1120.2 131.6C1119.7 131.12 1119.03 130.881 1118.2 130.881C1117.49 130.881 1116.86 131.072 1116.33 131.456C1115.79 131.833 1115.37 132.376 1115.07 133.086C1114.78 133.795 1114.63 134.646 1114.63 135.636C1114.63 136.64 1114.78 137.503 1115.07 138.225C1115.37 138.941 1115.78 139.494 1116.31 139.884C1116.85 140.267 1117.47 140.459 1118.2 140.459C1118.71 140.459 1119.17 140.363 1119.57 140.172C1119.98 139.973 1120.32 139.689 1120.59 139.318C1120.87 138.947 1121.06 138.497 1121.16 137.966H1124.48C1124.39 139.008 1124.09 139.932 1123.56 140.737C1123.03 141.536 1122.3 142.163 1121.39 142.616C1120.48 143.064 1119.4 143.288 1118.17 143.288ZM1127.33 143V128.273H1130.8V143H1127.33ZM1129.07 126.183C1128.52 126.183 1128.05 126 1127.65 125.636C1127.26 125.265 1127.06 124.821 1127.06 124.303C1127.06 123.779 1127.26 123.335 1127.65 122.971C1128.05 122.6 1128.52 122.414 1129.07 122.414C1129.63 122.414 1130.1 122.6 1130.49 122.971C1130.89 123.335 1131.09 123.779 1131.09 124.303C1131.09 124.821 1130.89 125.265 1130.49 125.636C1130.1 126 1129.63 126.183 1129.07 126.183ZM1138.61 143.297C1137.67 143.297 1136.83 143.131 1136.08 142.799C1135.34 142.46 1134.75 141.961 1134.32 141.303C1133.89 140.645 1133.68 139.833 1133.68 138.868C1133.68 138.037 1133.83 137.349 1134.14 136.806C1134.44 136.263 1134.86 135.828 1135.39 135.502C1135.92 135.176 1136.52 134.93 1137.19 134.764C1137.86 134.591 1138.55 134.467 1139.27 134.39C1140.13 134.3 1140.83 134.221 1141.37 134.15C1141.9 134.074 1142.29 133.958 1142.54 133.805C1142.79 133.645 1142.91 133.399 1142.91 133.067V133.009C1142.91 132.287 1142.7 131.728 1142.27 131.331C1141.84 130.935 1141.22 130.737 1140.42 130.737C1139.57 130.737 1138.89 130.922 1138.39 131.293C1137.9 131.664 1137.57 132.102 1137.4 132.607L1134.16 132.146C1134.41 131.251 1134.83 130.504 1135.42 129.903C1136.01 129.295 1136.73 128.842 1137.58 128.541C1138.43 128.234 1139.37 128.081 1140.4 128.081C1141.11 128.081 1141.81 128.164 1142.52 128.33C1143.22 128.496 1143.86 128.771 1144.44 129.155C1145.03 129.532 1145.49 130.047 1145.84 130.699C1146.2 131.35 1146.38 132.165 1146.38 133.143V143H1143.04V140.977H1142.93C1142.72 141.386 1142.42 141.77 1142.04 142.127C1141.66 142.479 1141.18 142.763 1140.61 142.981C1140.04 143.192 1139.37 143.297 1138.61 143.297ZM1139.51 140.747C1140.2 140.747 1140.81 140.609 1141.32 140.335C1141.83 140.053 1142.22 139.683 1142.5 139.222C1142.78 138.762 1142.92 138.26 1142.92 137.717V135.982C1142.81 136.071 1142.63 136.154 1142.36 136.231C1142.11 136.308 1141.82 136.375 1141.5 136.432C1141.18 136.49 1140.86 136.541 1140.55 136.586C1140.24 136.63 1139.97 136.669 1139.74 136.701C1139.22 136.771 1138.76 136.886 1138.35 137.046C1137.94 137.206 1137.61 137.429 1137.38 137.717C1137.14 137.998 1137.02 138.363 1137.02 138.81C1137.02 139.449 1137.26 139.932 1137.72 140.258C1138.19 140.584 1138.78 140.747 1139.51 140.747ZM1153.34 123.364V143H1149.87V123.364H1153.34Z" fill="#009FE3"/>
<path d="M1021 127.629L1020.12 128.06L1000.13 137.719L999 138.272V141.656H1043V138.272L1041.87 137.719L1021.87 128.06L1021 127.629ZM1021 132.059L1032.75 137.719H1009.25L1021 132.059ZM1003 143.625V163.312H1001V167.25H1041V163.312H1039V143.625H1035V163.312H1031V143.625H1027V163.312H1023V143.625H1019V163.312H1015V143.625H1011V163.312H1007V143.625H1003ZM997 169.219V173.156H1045V169.219H997Z" fill="#111111"/>
<path d="M1102.88 183C1102.88 184.724 1102.55 186.201 1101.91 187.43C1101.27 188.654 1100.39 189.591 1099.28 190.242C1098.18 190.893 1096.92 191.219 1095.52 191.219C1094.12 191.219 1092.87 190.893 1091.76 190.242C1090.65 189.586 1089.78 188.646 1089.13 187.422C1088.49 186.193 1088.17 184.719 1088.17 183C1088.17 181.276 1088.49 179.802 1089.13 178.578C1089.78 177.349 1090.65 176.409 1091.76 175.758C1092.87 175.107 1094.12 174.781 1095.52 174.781C1096.92 174.781 1098.18 175.107 1099.28 175.758C1100.39 176.409 1101.27 177.349 1101.91 178.578C1102.55 179.802 1102.88 181.276 1102.88 183ZM1099.96 183C1099.96 181.786 1099.77 180.763 1099.39 179.93C1099.02 179.091 1098.49 178.458 1097.83 178.031C1097.16 177.599 1096.39 177.383 1095.52 177.383C1094.65 177.383 1093.89 177.599 1093.22 178.031C1092.55 178.458 1092.03 179.091 1091.65 179.93C1091.27 180.763 1091.09 181.786 1091.09 183C1091.09 184.214 1091.27 185.24 1091.65 186.078C1092.03 186.911 1092.55 187.544 1093.22 187.977C1093.89 188.404 1094.65 188.617 1095.52 188.617C1096.39 188.617 1097.16 188.404 1097.83 187.977C1098.49 187.544 1099.02 186.911 1099.39 186.078C1099.77 185.24 1099.96 184.214 1099.96 183ZM1116.21 179L1111.94 191H1108.81L1104.54 179H1107.55L1110.31 187.914H1110.44L1113.2 179H1116.21ZM1123.07 191.234C1121.87 191.234 1120.83 190.984 1119.95 190.484C1119.08 189.979 1118.41 189.266 1117.95 188.344C1117.48 187.417 1117.24 186.326 1117.24 185.07C1117.24 183.836 1117.48 182.753 1117.95 181.82C1118.42 180.883 1119.08 180.154 1119.93 179.633C1120.78 179.107 1121.78 178.844 1122.92 178.844C1123.66 178.844 1124.36 178.964 1125.02 179.203C1125.68 179.437 1126.26 179.802 1126.77 180.297C1127.28 180.792 1127.68 181.422 1127.97 182.187C1128.26 182.948 1128.41 183.854 1128.41 184.906V185.773H1118.57V183.867H1125.7C1125.69 183.326 1125.57 182.844 1125.34 182.422C1125.11 181.995 1124.79 181.659 1124.38 181.414C1123.98 181.169 1123.5 181.047 1122.96 181.047C1122.38 181.047 1121.88 181.187 1121.44 181.469C1121 181.745 1120.66 182.109 1120.41 182.562C1120.17 183.01 1120.05 183.503 1120.05 184.039V185.703C1120.05 186.401 1120.17 187 1120.43 187.5C1120.68 187.995 1121.04 188.375 1121.5 188.641C1121.96 188.901 1122.49 189.031 1123.11 189.031C1123.52 189.031 1123.89 188.974 1124.23 188.859C1124.56 188.74 1124.85 188.565 1125.09 188.336C1125.34 188.107 1125.52 187.823 1125.65 187.484L1128.29 187.781C1128.12 188.479 1127.8 189.089 1127.34 189.609C1126.87 190.125 1126.28 190.526 1125.55 190.812C1124.83 191.094 1124 191.234 1123.07 191.234ZM1130.8 191V179H1133.54V181H1133.67C1133.88 180.307 1134.26 179.773 1134.79 179.398C1135.33 179.018 1135.94 178.828 1136.63 178.828C1136.78 178.828 1136.96 178.836 1137.15 178.852C1137.35 178.862 1137.51 178.88 1137.64 178.906V181.508C1137.52 181.466 1137.33 181.43 1137.07 181.398C1136.82 181.362 1136.57 181.344 1136.33 181.344C1135.81 181.344 1135.35 181.456 1134.94 181.68C1134.53 181.898 1134.21 182.203 1133.98 182.594C1133.74 182.984 1133.63 183.435 1133.63 183.945V191H1130.8ZM1142.76 191.242C1142 191.242 1141.31 191.107 1140.71 190.836C1140.1 190.56 1139.62 190.154 1139.27 189.617C1138.92 189.081 1138.74 188.419 1138.74 187.633C1138.74 186.956 1138.87 186.396 1139.12 185.953C1139.37 185.51 1139.71 185.156 1140.14 184.891C1140.57 184.625 1141.06 184.424 1141.6 184.289C1142.15 184.148 1142.72 184.047 1143.3 183.984C1144 183.911 1144.57 183.846 1145.01 183.789C1145.45 183.727 1145.76 183.633 1145.96 183.508C1146.17 183.378 1146.27 183.177 1146.27 182.906V182.859C1146.27 182.271 1146.09 181.815 1145.74 181.492C1145.4 181.169 1144.89 181.008 1144.24 181.008C1143.54 181.008 1142.99 181.159 1142.59 181.461C1142.19 181.763 1141.92 182.12 1141.78 182.531L1139.13 182.156C1139.34 181.427 1139.69 180.818 1140.17 180.328C1140.65 179.833 1141.23 179.464 1141.92 179.219C1142.62 178.969 1143.38 178.844 1144.22 178.844C1144.8 178.844 1145.37 178.911 1145.95 179.047C1146.52 179.182 1147.04 179.406 1147.52 179.719C1147.99 180.026 1148.37 180.445 1148.66 180.977C1148.95 181.508 1149.1 182.172 1149.1 182.969V191H1146.38V189.352H1146.28C1146.11 189.685 1145.87 189.997 1145.56 190.289C1145.25 190.576 1144.86 190.807 1144.39 190.984C1143.93 191.156 1143.38 191.242 1142.76 191.242ZM1143.49 189.164C1144.06 189.164 1144.55 189.052 1144.97 188.828C1145.39 188.599 1145.71 188.297 1145.93 187.922C1146.16 187.547 1146.28 187.138 1146.28 186.695V185.281C1146.19 185.354 1146.04 185.422 1145.82 185.484C1145.61 185.547 1145.38 185.602 1145.12 185.648C1144.86 185.695 1144.6 185.737 1144.35 185.773C1144.09 185.81 1143.87 185.841 1143.68 185.867C1143.26 185.924 1142.88 186.018 1142.55 186.148C1142.22 186.279 1141.95 186.461 1141.76 186.695C1141.57 186.924 1141.47 187.221 1141.47 187.586C1141.47 188.107 1141.66 188.5 1142.04 188.766C1142.42 189.031 1142.91 189.164 1143.49 189.164ZM1154.77 175V191H1151.94V175H1154.77ZM1160.5 175V191H1157.68V175H1160.5ZM1168.87 191V179H1171.7V191H1168.87ZM1170.29 177.297C1169.84 177.297 1169.46 177.148 1169.13 176.852C1168.81 176.549 1168.65 176.187 1168.65 175.766C1168.65 175.339 1168.81 174.977 1169.13 174.68C1169.46 174.378 1169.84 174.227 1170.29 174.227C1170.74 174.227 1171.13 174.378 1171.45 174.68C1171.77 174.977 1171.93 175.339 1171.93 175.766C1171.93 176.187 1171.77 176.549 1171.45 176.852C1171.13 177.148 1170.74 177.297 1170.29 177.297ZM1177.43 183.969V191H1174.61V179H1177.31V181.039H1177.45C1177.73 180.367 1178.17 179.833 1178.77 179.437C1179.38 179.042 1180.13 178.844 1181.03 178.844C1181.86 178.844 1182.58 179.021 1183.19 179.375C1183.81 179.729 1184.29 180.242 1184.63 180.914C1184.97 181.586 1185.14 182.401 1185.14 183.359V191H1182.31V183.797C1182.31 182.995 1182.1 182.367 1181.68 181.914C1181.27 181.461 1180.7 181.234 1179.97 181.234C1179.48 181.234 1179.04 181.344 1178.65 181.562C1178.27 181.776 1177.97 182.086 1177.75 182.492C1177.54 182.898 1177.43 183.391 1177.43 183.969ZM1196.3 183.969V191H1193.47V175H1196.23V181.039H1196.38C1196.66 180.362 1197.09 179.828 1197.68 179.437C1198.27 179.042 1199.03 178.844 1199.95 178.844C1200.78 178.844 1201.51 179.018 1202.13 179.367C1202.74 179.716 1203.22 180.227 1203.56 180.898C1203.91 181.57 1204.08 182.391 1204.08 183.359V191H1201.25V183.797C1201.25 182.99 1201.04 182.362 1200.63 181.914C1200.21 181.461 1199.64 181.234 1198.89 181.234C1198.39 181.234 1197.94 181.344 1197.55 181.562C1197.16 181.776 1196.85 182.086 1196.63 182.492C1196.41 182.898 1196.3 183.391 1196.3 183.969ZM1212.27 191.234C1211.07 191.234 1210.03 190.984 1209.16 190.484C1208.29 189.979 1207.62 189.266 1207.15 188.344C1206.68 187.417 1206.45 186.326 1206.45 185.07C1206.45 183.836 1206.68 182.753 1207.15 181.82C1207.62 180.883 1208.28 180.154 1209.13 179.633C1209.98 179.107 1210.98 178.844 1212.12 178.844C1212.86 178.844 1213.56 178.964 1214.22 179.203C1214.88 179.437 1215.46 179.802 1215.97 180.297C1216.48 180.792 1216.88 181.422 1217.17 182.187C1217.46 182.948 1217.61 183.854 1217.61 184.906V185.773H1207.77V183.867H1214.9C1214.89 183.326 1214.78 182.844 1214.55 182.422C1214.32 181.995 1214 181.659 1213.59 181.414C1213.18 181.169 1212.71 181.047 1212.16 181.047C1211.59 181.047 1211.08 181.187 1210.64 181.469C1210.2 181.745 1209.86 182.109 1209.62 182.562C1209.38 183.01 1209.26 183.503 1209.25 184.039V185.703C1209.25 186.401 1209.38 187 1209.63 187.5C1209.89 187.995 1210.24 188.375 1210.7 188.641C1211.16 188.901 1211.7 189.031 1212.31 189.031C1212.72 189.031 1213.1 188.974 1213.43 188.859C1213.76 188.74 1214.05 188.565 1214.3 188.336C1214.54 188.107 1214.73 187.823 1214.85 187.484L1217.49 187.781C1217.33 188.479 1217.01 189.089 1216.54 189.609C1216.08 190.125 1215.48 190.526 1214.76 190.812C1214.03 191.094 1213.21 191.234 1212.27 191.234ZM1220 191V179H1222.74V181H1222.87C1223.09 180.307 1223.46 179.773 1223.99 179.398C1224.53 179.018 1225.14 178.828 1225.83 178.828C1225.99 178.828 1226.16 178.836 1226.35 178.852C1226.55 178.862 1226.72 178.88 1226.85 178.906V181.508C1226.73 181.466 1226.54 181.43 1226.28 181.398C1226.02 181.362 1225.77 181.344 1225.53 181.344C1225.02 181.344 1224.55 181.456 1224.14 181.68C1223.74 181.898 1223.42 182.203 1223.18 182.594C1222.95 182.984 1222.83 183.435 1222.83 183.945V191H1220ZM1233.54 191.234C1232.34 191.234 1231.3 190.984 1230.43 190.484C1229.56 189.979 1228.89 189.266 1228.42 188.344C1227.95 187.417 1227.71 186.326 1227.71 185.07C1227.71 183.836 1227.95 182.753 1228.42 181.82C1228.89 180.883 1229.55 180.154 1230.4 179.633C1231.25 179.107 1232.25 178.844 1233.39 178.844C1234.13 178.844 1234.83 178.964 1235.49 179.203C1236.15 179.437 1236.73 179.802 1237.24 180.297C1237.75 180.792 1238.15 181.422 1238.44 182.187C1238.73 182.948 1238.88 183.854 1238.88 184.906V185.773H1229.04V183.867H1236.17C1236.16 183.326 1236.05 182.844 1235.82 182.422C1235.59 181.995 1235.27 181.659 1234.86 181.414C1234.45 181.169 1233.98 181.047 1233.43 181.047C1232.86 181.047 1232.35 181.187 1231.91 181.469C1231.47 181.745 1231.13 182.109 1230.89 182.562C1230.65 183.01 1230.52 183.503 1230.52 184.039V185.703C1230.52 186.401 1230.65 187 1230.9 187.5C1231.16 187.995 1231.51 188.375 1231.97 188.641C1232.43 188.901 1232.97 189.031 1233.58 189.031C1233.99 189.031 1234.37 188.974 1234.7 188.859C1235.03 188.74 1235.32 188.565 1235.57 188.336C1235.81 188.107 1236 187.823 1236.12 187.484L1238.76 187.781C1238.6 188.479 1238.28 189.089 1237.81 189.609C1237.35 190.125 1236.75 190.526 1236.03 190.812C1235.3 191.094 1234.48 191.234 1233.54 191.234Z" fill="#8B8888"/>
<path d="M487.053 40.414H475.377L473.445 46H467.271L477.813 16.642H484.659L495.201 46H488.985L487.053 40.414ZM485.457 35.71L481.215 23.446L476.973 35.71H485.457ZM497.629 34.366C497.629 31.958 498.119 29.858 499.099 28.066C500.079 26.246 501.437 24.846 503.173 23.866C504.909 22.858 506.897 22.354 509.137 22.354C512.021 22.354 514.401 23.082 516.277 24.538C518.181 25.966 519.455 27.982 520.099 30.586H513.757C513.421 29.578 512.847 28.794 512.035 28.234C511.251 27.646 510.271 27.352 509.095 27.352C507.415 27.352 506.085 27.968 505.105 29.2C504.125 30.404 503.635 32.126 503.635 34.366C503.635 36.578 504.125 38.3 505.105 39.532C506.085 40.736 507.415 41.338 509.095 41.338C511.475 41.338 513.029 40.274 513.757 38.146H520.099C519.455 40.666 518.181 42.668 516.277 44.152C514.373 45.636 511.993 46.378 509.137 46.378C506.897 46.378 504.909 45.888 503.173 44.908C501.437 43.9 500.079 42.5 499.099 40.708C498.119 38.888 497.629 36.774 497.629 34.366ZM537.511 22.396C539.275 22.396 540.843 22.788 542.215 23.572C543.587 24.328 544.651 25.462 545.407 26.974C546.191 28.458 546.583 30.25 546.583 32.35V46H540.703V33.148C540.703 31.3 540.241 29.886 539.317 28.906C538.393 27.898 537.133 27.394 535.537 27.394C533.913 27.394 532.625 27.898 531.673 28.906C530.749 29.886 530.287 31.3 530.287 33.148V46H524.407V14.92H530.287V25.63C531.043 24.622 532.051 23.838 533.311 23.278C534.571 22.69 535.971 22.396 537.511 22.396ZM555.156 19.96C554.12 19.96 553.252 19.638 552.552 18.994C551.88 18.322 551.544 17.496 551.544 16.516C551.544 15.536 551.88 14.724 552.552 14.08C553.252 13.408 554.12 13.072 555.156 13.072C556.192 13.072 557.046 13.408 557.718 14.08C558.418 14.724 558.768 15.536 558.768 16.516C558.768 17.496 558.418 18.322 557.718 18.994C557.046 19.638 556.192 19.96 555.156 19.96ZM558.054 22.732V46H552.174V22.732H558.054ZM585.494 33.862C585.494 34.702 585.438 35.458 585.326 36.13H568.316C568.456 37.81 569.044 39.126 570.08 40.078C571.116 41.03 572.39 41.506 573.902 41.506C576.086 41.506 577.64 40.568 578.564 38.692H584.906C584.234 40.932 582.946 42.78 581.042 44.236C579.138 45.664 576.8 46.378 574.028 46.378C571.788 46.378 569.772 45.888 567.98 44.908C566.216 43.9 564.83 42.486 563.822 40.666C562.842 38.846 562.352 36.746 562.352 34.366C562.352 31.958 562.842 29.844 563.822 28.024C564.802 26.204 566.174 24.804 567.938 23.824C569.702 22.844 571.732 22.354 574.028 22.354C576.24 22.354 578.214 22.83 579.95 23.782C581.714 24.734 583.072 26.092 584.024 27.856C585.004 29.592 585.494 31.594 585.494 33.862ZM579.404 32.182C579.376 30.67 578.83 29.466 577.766 28.57C576.702 27.646 575.4 27.184 573.86 27.184C572.404 27.184 571.172 27.632 570.164 28.528C569.184 29.396 568.582 30.614 568.358 32.182H579.404ZM599.488 40.582L605.368 22.732H611.626L603.016 46H595.876L587.308 22.732H593.608L599.488 40.582ZM636.558 33.862C636.558 34.702 636.502 35.458 636.39 36.13H619.38C619.52 37.81 620.108 39.126 621.144 40.078C622.18 41.03 623.454 41.506 624.966 41.506C627.15 41.506 628.704 40.568 629.628 38.692H635.97C635.298 40.932 634.01 42.78 632.106 44.236C630.202 45.664 627.864 46.378 625.092 46.378C622.852 46.378 620.836 45.888 619.044 44.908C617.28 43.9 615.894 42.486 614.886 40.666C613.906 38.846 613.416 36.746 613.416 34.366C613.416 31.958 613.906 29.844 614.886 28.024C615.866 26.204 617.238 24.804 619.002 23.824C620.766 22.844 622.796 22.354 625.092 22.354C627.304 22.354 629.278 22.83 631.014 23.782C632.778 24.734 634.136 26.092 635.088 27.856C636.068 29.592 636.558 31.594 636.558 33.862ZM630.468 32.182C630.44 30.67 629.894 29.466 628.83 28.57C627.766 27.646 626.464 27.184 624.924 27.184C623.468 27.184 622.236 27.632 621.228 28.528C620.248 29.396 619.646 30.614 619.422 32.182H630.468ZM669.746 22.396C672.602 22.396 674.898 23.278 676.634 25.042C678.398 26.778 679.28 29.214 679.28 32.35V46H673.4V33.148C673.4 31.328 672.938 29.942 672.014 28.99C671.09 28.01 669.83 27.52 668.234 27.52C666.638 27.52 665.364 28.01 664.412 28.99C663.488 29.942 663.026 31.328 663.026 33.148V46H657.146V33.148C657.146 31.328 656.684 29.942 655.76 28.99C654.836 28.01 653.576 27.52 651.98 27.52C650.356 27.52 649.068 28.01 648.116 28.99C647.192 29.942 646.73 31.328 646.73 33.148V46H640.85V22.732H646.73V25.546C647.486 24.566 648.452 23.796 649.628 23.236C650.832 22.676 652.148 22.396 653.576 22.396C655.396 22.396 657.02 22.788 658.448 23.572C659.876 24.328 660.982 25.42 661.766 26.848C662.522 25.504 663.614 24.426 665.042 23.614C666.498 22.802 668.066 22.396 669.746 22.396ZM706.49 33.862C706.49 34.702 706.434 35.458 706.322 36.13H689.312C689.452 37.81 690.04 39.126 691.076 40.078C692.112 41.03 693.386 41.506 694.898 41.506C697.082 41.506 698.636 40.568 699.56 38.692H705.902C705.23 40.932 703.942 42.78 702.038 44.236C700.134 45.664 697.796 46.378 695.024 46.378C692.784 46.378 690.768 45.888 688.976 44.908C687.212 43.9 685.826 42.486 684.818 40.666C683.838 38.846 683.348 36.746 683.348 34.366C683.348 31.958 683.838 29.844 684.818 28.024C685.798 26.204 687.17 24.804 688.934 23.824C690.698 22.844 692.728 22.354 695.024 22.354C697.236 22.354 699.21 22.83 700.946 23.782C702.71 24.734 704.068 26.092 705.02 27.856C706 29.592 706.49 31.594 706.49 33.862ZM700.4 32.182C700.372 30.67 699.826 29.466 698.762 28.57C697.698 27.646 696.396 27.184 694.856 27.184C693.4 27.184 692.168 27.632 691.16 28.528C690.18 29.396 689.578 30.614 689.354 32.182H700.4ZM723.676 22.396C726.448 22.396 728.688 23.278 730.396 25.042C732.104 26.778 732.958 29.214 732.958 32.35V46H727.078V33.148C727.078 31.3 726.616 29.886 725.692 28.906C724.768 27.898 723.508 27.394 721.912 27.394C720.288 27.394 719 27.898 718.048 28.906C717.124 29.886 716.662 31.3 716.662 33.148V46H710.782V22.732H716.662V25.63C717.446 24.622 718.44 23.838 719.644 23.278C720.876 22.69 722.22 22.396 723.676 22.396ZM745.395 27.562V38.818C745.395 39.602 745.577 40.176 745.941 40.54C746.333 40.876 746.977 41.044 747.873 41.044H750.603V46H746.907C741.951 46 739.473 43.592 739.473 38.776V27.562H736.701V22.732H739.473V16.978H745.395V22.732H750.603V27.562H745.395ZM763.737 46.378C761.833 46.378 760.125 46.042 758.613 45.37C757.101 44.67 755.897 43.732 755.001 42.556C754.133 41.38 753.657 40.078 753.573 38.65H759.495C759.607 39.546 760.041 40.288 760.797 40.876C761.581 41.464 762.547 41.758 763.695 41.758C764.815 41.758 765.683 41.534 766.299 41.086C766.943 40.638 767.265 40.064 767.265 39.364C767.265 38.608 766.873 38.048 766.089 37.684C765.333 37.292 764.115 36.872 762.435 36.424C760.699 36.004 759.271 35.57 758.151 35.122C757.059 34.674 756.107 33.988 755.295 33.064C754.511 32.14 754.119 30.894 754.119 29.326C754.119 28.038 754.483 26.862 755.211 25.798C755.967 24.734 757.031 23.894 758.403 23.278C759.803 22.662 761.441 22.354 763.317 22.354C766.089 22.354 768.301 23.054 769.953 24.454C771.605 25.826 772.515 27.688 772.683 30.04H767.055C766.971 29.116 766.579 28.388 765.879 27.856C765.207 27.296 764.297 27.016 763.149 27.016C762.085 27.016 761.259 27.212 760.671 27.604C760.111 27.996 759.831 28.542 759.831 29.242C759.831 30.026 760.223 30.628 761.007 31.048C761.791 31.44 763.009 31.846 764.661 32.266C766.341 32.686 767.727 33.12 768.819 33.568C769.911 34.016 770.849 34.716 771.633 35.668C772.445 36.592 772.865 37.824 772.893 39.364C772.893 40.708 772.515 41.912 771.759 42.976C771.031 44.04 769.967 44.88 768.567 45.496C767.195 46.084 765.585 46.378 763.737 46.378Z" fill="#021720"/>
<defs>
<clipPath id="clip0_369_35">
<rect width="83" height="71" fill="white" transform="translate(343 121)"/>
</clipPath>
</defs>
</svg>
